solid Created by Gmsh
facet normal -0 0 1
  outer loop
    vertex 13.33333333333334 40 30
    vertex 16.14319407873712 35.85329442891965 30
    vertex 20 40 30
  endloop
endfacet
facet normal 0 0 1
  outer loop
    vertex 20 40 30
    vertex 16.14319407873712 35.85329442891965 30
    vertex 20 32.50000000000001 30
  endloop
endfacet
facet normal -0 0 1
  outer loop
    vertex -20 40 30
    vertex -15.26076619789832 35.22837143272631 30
    vertex -13.33333333333332 40 30
  endloop
endfacet
facet normal 0 0 1
  outer loop
    vertex -20 32.49999999999998 30
    vertex -15.26076619789832 35.22837143272631 30
    vertex -20 40 30
  endloop
endfacet
facet normal 0 0 1
  outer loop
    vertex -20 -20 30
    vertex -15.27341097052109 -15.27152701627194 30
    vertex -20 -12.50000000000001 30
  endloop
endfacet
facet normal 0 0 1
  outer loop
    vertex -13.33333333333334 -20 30
    vertex -15.27341097052109 -15.27152701627194 30
    vertex -20 -20 30
  endloop
endfacet
facet normal 0 0 1
  outer loop
    vertex 20 -20 30
    vertex 15.31020252130419 -15.15093489882696 30
    vertex 13.33333333333332 -20 30
  endloop
endfacet
facet normal 0 0 1
  outer loop
    vertex 20 -12.49999999999998 30
    vertex 15.31020252130419 -15.15093489882696 30
    vertex 20 -20 30
  endloop
endfacet
facet normal -0 0 1
  outer loop
    vertex 6.666666666666702 40 30
    vertex 11.36617000878521 35.4981310937868 30
    vertex 13.33333333333334 40 30
  endloop
endfacet
facet normal 0 0 1
  outer loop
    vertex 11.36617000878521 35.4981310937868 30
    vertex 16.14319407873712 35.85329442891965 30
    vertex 13.33333333333334 40 30
  endloop
endfacet
facet normal -0 0 1
  outer loop
    vertex 3.469446951953614e-14 40 30
    vertex 1.876647424390311 35.02440958692665 30
    vertex 6.666666666666702 40 30
  endloop
endfacet
facet normal 0 0 1
  outer loop
    vertex 6.660384747754147 31.87650115930833 30
    vertex 11.36617000878521 35.4981310937868 30
    vertex 6.666666666666702 40 30
  endloop
endfacet
facet normal 0 0 1
  outer loop
    vertex 6.666666666666702 40 30
    vertex 1.876647424390311 35.02440958692665 30
    vertex 6.660384747754147 31.87650115930833 30
  endloop
endfacet
facet normal -0 0 1
  outer loop
    vertex -6.666666666666645 40 30
    vertex -3.5930378950343 34.54113419569349 30
    vertex 3.469446951953614e-14 40 30
  endloop
endfacet
facet normal 0 0 1
  outer loop
    vertex -3.5930378950343 34.54113419569349 30
    vertex 1.876647424390311 35.02440958692665 30
    vertex 3.469446951953614e-14 40 30
  endloop
endfacet
facet normal -0 0 1
  outer loop
    vertex -13.33333333333332 40 30
    vertex -9.807650703842025 34.7440574986115 30
    vertex -6.666666666666645 40 30
  endloop
endfacet
facet normal 0 0 1
  outer loop
    vertex -6.666666666666645 40 30
    vertex -9.807650703842025 34.7440574986115 30
    vertex -3.5930378950343 34.54113419569349 30
  endloop
endfacet
facet normal 0 0 1
  outer loop
    vertex -13.33333333333332 40 30
    vertex -15.26076619789832 35.22837143272631 30
    vertex -9.807650703842025 34.7440574986115 30
  endloop
endfacet
facet normal 0 0 1
  outer loop
    vertex -20 24.99999999999996 30
    vertex -13.16284695231627 28.89779966502007 30
    vertex -20 32.49999999999998 30
  endloop
endfacet
facet normal 0 0 1
  outer loop
    vertex -13.16284695231627 28.89779966502007 30
    vertex -15.26076619789832 35.22837143272631 30
    vertex -20 32.49999999999998 30
  endloop
endfacet
facet normal 0 0 1
  outer loop
    vertex -20 17.49999999999996 30
    vertex -13.31642529117251 21.10132621285621 30
    vertex -20 24.99999999999996 30
  endloop
endfacet
facet normal 0 -0 1
  outer loop
    vertex -13.31642529117251 21.10132621285621 30
    vertex -13.16284695231627 28.89779966502007 30
    vertex -20 24.99999999999996 30
  endloop
endfacet
facet normal 0 0 1
  outer loop
    vertex -20 9.999999999999972 30
    vertex -13.47078708859982 13.65197247712558 30
    vertex -20 17.49999999999996 30
  endloop
endfacet
facet normal -0 0 1
  outer loop
    vertex -20 17.49999999999996 30
    vertex -13.47078708859982 13.65197247712558 30
    vertex -13.31642529117251 21.10132621285621 30
  endloop
endfacet
facet normal 0 0 1
  outer loop
    vertex -20 2.49999999999998 30
    vertex -13.53494818117886 6.210069542505947 30
    vertex -20 9.999999999999972 30
  endloop
endfacet
facet normal 0 -0 1
  outer loop
    vertex -13.53494818117886 6.210069542505947 30
    vertex -13.47078708859982 13.65197247712558 30
    vertex -20 9.999999999999972 30
  endloop
endfacet
facet normal 0 0 1
  outer loop
    vertex -20 -5.000000000000014 30
    vertex -13.51309559972848 -1.321726242273828 30
    vertex -20 2.49999999999998 30
  endloop
endfacet
facet normal -0 0 1
  outer loop
    vertex -20 2.49999999999998 30
    vertex -13.51309559972848 -1.321726242273828 30
    vertex -13.53494818117886 6.210069542505947 30
  endloop
endfacet
facet normal 0 0 1
  outer loop
    vertex -20 -12.50000000000001 30
    vertex -13.25100459443336 -9.058841160043713 30
    vertex -20 -5.000000000000014 30
  endloop
endfacet
facet normal 0 0 1
  outer loop
    vertex -13.25100459443336 -9.058841160043713 30
    vertex -13.51309559972848 -1.321726242273828 30
    vertex -20 -5.000000000000014 30
  endloop
endfacet
facet normal -0 0 1
  outer loop
    vertex -20 -12.50000000000001 30
    vertex -15.27341097052109 -15.27152701627194 30
    vertex -13.25100459443336 -9.058841160043713 30
  endloop
endfacet
facet normal 0 0 1
  outer loop
    vertex -6.666666666666702 -20 30
    vertex -9.78271692483874 -14.79879392131597 30
    vertex -13.33333333333334 -20 30
  endloop
endfacet
facet normal 0 0 1
  outer loop
    vertex -9.78271692483874 -14.79879392131597 30
    vertex -15.27341097052109 -15.27152701627194 30
    vertex -13.33333333333334 -20 30
  endloop
endfacet
facet normal 0 0 1
  outer loop
    vertex -3.469446951953614e-14 -20 30
    vertex -3.424873113535792 -14.47741615803081 30
    vertex -6.666666666666702 -20 30
  endloop
endfacet
facet normal 0 0 1
  outer loop
    vertex -3.424873113535792 -14.47741615803081 30
    vertex -9.78271692483874 -14.79879392131597 30
    vertex -6.666666666666702 -20 30
  endloop
endfacet
facet normal 0 0 1
  outer loop
    vertex 6.666666666666645 -20 30
    vertex 3.210192650934279 -14.55308070408075 30
    vertex -3.469446951953614e-14 -20 30
  endloop
endfacet
facet normal 0 -0 1
  outer loop
    vertex -3.469446951953614e-14 -20 30
    vertex 3.210192650934279 -14.55308070408075 30
    vertex -3.424873113535792 -14.47741615803081 30
  endloop
endfacet
facet normal 0 0 1
  outer loop
    vertex 13.33333333333332 -20 30
    vertex 9.843391373499111 -14.61221339975407 30
    vertex 6.666666666666645 -20 30
  endloop
endfacet
facet normal 0 0 1
  outer loop
    vertex 9.843391373499111 -14.61221339975407 30
    vertex 3.210192650934279 -14.55308070408075 30
    vertex 6.666666666666645 -20 30
  endloop
endfacet
facet normal 0 -0 1
  outer loop
    vertex 13.33333333333332 -20 30
    vertex 15.31020252130419 -15.15093489882696 30
    vertex 9.843391373499111 -14.61221339975407 30
  endloop
endfacet
facet normal 0 0 1
  outer loop
    vertex 20 -4.999999999999961 30
    vertex 13.3742878996885 -8.642461094380785 30
    vertex 20 -12.49999999999998 30
  endloop
endfacet
facet normal 0 0 1
  outer loop
    vertex 13.3742878996885 -8.642461094380785 30
    vertex 15.31020252130419 -15.15093489882696 30
    vertex 20 -12.49999999999998 30
  endloop
endfacet
facet normal 0 0 1
  outer loop
    vertex 20 2.500000000000035 30
    vertex 12.83153901976588 -1.208352539896774 30
    vertex 20 -4.999999999999961 30
  endloop
endfacet
facet normal 0 0 1
  outer loop
    vertex 12.83153901976588 -1.208352539896774 30
    vertex 13.3742878996885 -8.642461094380785 30
    vertex 20 -4.999999999999961 30
  endloop
endfacet
facet normal 0 0 1
  outer loop
    vertex 20 10.00000000000003 30
    vertex 12.66312880416113 6.188971107891634 30
    vertex 20 2.500000000000035 30
  endloop
endfacet
facet normal 0 0 1
  outer loop
    vertex 20 2.500000000000035 30
    vertex 12.66312880416113 6.188971107891634 30
    vertex 12.83153901976588 -1.208352539896774 30
  endloop
endfacet
facet normal 0 0 1
  outer loop
    vertex 20 17.50000000000002 30
    vertex 13.03819425181896 13.64417051921259 30
    vertex 20 10.00000000000003 30
  endloop
endfacet
facet normal 0 0 1
  outer loop
    vertex 13.03819425181896 13.64417051921259 30
    vertex 12.66312880416113 6.188971107891634 30
    vertex 20 10.00000000000003 30
  endloop
endfacet
facet normal 0 0 1
  outer loop
    vertex 20 25.00000000000001 30
    vertex 13.38875614769066 21.23502987427062 30
    vertex 20 17.50000000000002 30
  endloop
endfacet
facet normal 0 0 1
  outer loop
    vertex 20 17.50000000000002 30
    vertex 13.38875614769066 21.23502987427062 30
    vertex 13.03819425181896 13.64417051921259 30
  endloop
endfacet
facet normal 0 0 1
  outer loop
    vertex 20 32.50000000000001 30
    vertex 13.50379862950518 29.36415430962568 30
    vertex 20 25.00000000000001 30
  endloop
endfacet
facet normal 0 0 1
  outer loop
    vertex 13.50379862950518 29.36415430962568 30
    vertex 13.38875614769066 21.23502987427062 30
    vertex 20 25.00000000000001 30
  endloop
endfacet
facet normal 0 0 1
  outer loop
    vertex 20 32.50000000000001 30
    vertex 16.14319407873712 35.85329442891965 30
    vertex 13.50379862950518 29.36415430962568 30
  endloop
endfacet
facet normal 0 0 1
  outer loop
    vertex 13.03819425181896 13.64417051921259 30
    vertex 6.075298109942114 9.810834620654836 30
    vertex 12.66312880416113 6.188971107891634 30
  endloop
endfacet
facet normal 0 -0 1
  outer loop
    vertex 13.03819425181896 13.64417051921259 30
    vertex 13.38875614769066 21.23502987427062 30
    vertex 6.201798883655187 17.156307771447 30
  endloop
endfacet
facet normal 0 0 1
  outer loop
    vertex 6.201798883655187 17.156307771447 30
    vertex 6.075298109942114 9.810834620654836 30
    vertex 13.03819425181896 13.64417051921259 30
  endloop
endfacet
facet normal 0 0 1
  outer loop
    vertex 5.787511841167076 2.417147360124645 30
    vertex 6.307464622668154 -4.421648059080699 30
    vertex 12.83153901976588 -1.208352539896774 30
  endloop
endfacet
facet normal 0 0 1
  outer loop
    vertex 12.83153901976588 -1.208352539896774 30
    vertex 12.66312880416113 6.188971107891634 30
    vertex 5.787511841167076 2.417147360124645 30
  endloop
endfacet
facet normal -0 0 1
  outer loop
    vertex 6.307464622668154 -4.421648059080699 30
    vertex 13.3742878996885 -8.642461094380785 30
    vertex 12.83153901976588 -1.208352539896774 30
  endloop
endfacet
facet normal 0 -0 1
  outer loop
    vertex -0.3507763974350294 28.70441257963143 30
    vertex 1.876647424390311 35.02440958692665 30
    vertex -3.5930378950343 34.54113419569349 30
  endloop
endfacet
facet normal 0 0 1
  outer loop
    vertex -3.5930378950343 34.54113419569349 30
    vertex -6.729559189593477 30.22651769301051 30
    vertex -0.3507763974350294 28.70441257963143 30
  endloop
endfacet
facet normal 0 0 1
  outer loop
    vertex -9.807650703842025 34.7440574986115 30
    vertex -6.729559189593477 30.22651769301051 30
    vertex -3.5930378950343 34.54113419569349 30
  endloop
endfacet
facet normal 0 0 1
  outer loop
    vertex 3.210192650934279 -14.55308070408075 30
    vertex -0.2369358207118098 -8.518304951177853 30
    vertex -3.424873113535792 -14.47741615803081 30
  endloop
endfacet
facet normal 0 0 1
  outer loop
    vertex -3.424873113535792 -14.47741615803081 30
    vertex -6.732868699077638 -10.28776344389592 30
    vertex -9.78271692483874 -14.79879392131597 30
  endloop
endfacet
facet normal 0 0 1
  outer loop
    vertex -0.2369358207118098 -8.518304951177853 30
    vertex -6.732868699077638 -10.28776344389592 30
    vertex -3.424873113535792 -14.47741615803081 30
  endloop
endfacet
facet normal 0 -0 1
  outer loop
    vertex -13.51309559972848 -1.321726242273828 30
    vertex -7.108893839510795 2.408553562397844 30
    vertex -13.53494818117886 6.210069542505947 30
  endloop
endfacet
facet normal 0 -0 1
  outer loop
    vertex -7.108893839510795 2.408553562397844 30
    vertex -7.044294550506493 9.85323488172877 30
    vertex -13.53494818117886 6.210069542505947 30
  endloop
endfacet
facet normal 0 0 1
  outer loop
    vertex -7.044294550506493 9.85323488172877 30
    vertex -13.47078708859982 13.65197247712558 30
    vertex -13.53494818117886 6.210069542505947 30
  endloop
endfacet
facet normal 0 -0 1
  outer loop
    vertex -6.929054508741054 17.24720422566261 30
    vertex -6.733483999339759 24.24518452609604 30
    vertex -13.31642529117251 21.10132621285621 30
  endloop
endfacet
facet normal 0 0 1
  outer loop
    vertex -13.31642529117251 21.10132621285621 30
    vertex -13.47078708859982 13.65197247712558 30
    vertex -6.929054508741054 17.24720422566261 30
  endloop
endfacet
facet normal 0 0 1
  outer loop
    vertex -6.733483999339759 24.24518452609604 30
    vertex -13.16284695231627 28.89779966502007 30
    vertex -13.31642529117251 21.10132621285621 30
  endloop
endfacet
facet normal -0 0 1
  outer loop
    vertex 6.374363139602419 24.5888992497061 30
    vertex 13.38875614769066 21.23502987427062 30
    vertex 13.50379862950518 29.36415430962568 30
  endloop
endfacet
facet normal 0 0 1
  outer loop
    vertex 13.50379862950518 29.36415430962568 30
    vertex 6.660384747754147 31.87650115930833 30
    vertex 6.374363139602419 24.5888992497061 30
  endloop
endfacet
facet normal 0 0 1
  outer loop
    vertex 13.50379862950518 29.36415430962568 30
    vertex 11.36617000878521 35.4981310937868 30
    vertex 6.660384747754147 31.87650115930833 30
  endloop
endfacet
facet normal 0 -0 1
  outer loop
    vertex 13.50379862950518 29.36415430962568 30
    vertex 16.14319407873712 35.85329442891965 30
    vertex 11.36617000878521 35.4981310937868 30
  endloop
endfacet
facet normal 0 0 1
  outer loop
    vertex 9.843391373499111 -14.61221339975407 30
    vertex 6.666666666666635 -10.13931552064659 30
    vertex 3.210192650934279 -14.55308070408075 30
  endloop
endfacet
facet normal -0 0 1
  outer loop
    vertex 9.843391373499111 -14.61221339975407 30
    vertex 15.31020252130419 -15.15093489882696 30
    vertex 13.3742878996885 -8.642461094380785 30
  endloop
endfacet
facet normal 0 0 1
  outer loop
    vertex 13.3742878996885 -8.642461094380785 30
    vertex 6.666666666666635 -10.13931552064659 30
    vertex 9.843391373499111 -14.61221339975407 30
  endloop
endfacet
facet normal 0 -0 1
  outer loop
    vertex -13.25100459443336 -9.058841160043713 30
    vertex -6.968813041868494 -4.585461028911263 30
    vertex -13.51309559972848 -1.321726242273828 30
  endloop
endfacet
facet normal -0 0 1
  outer loop
    vertex -13.25100459443336 -9.058841160043713 30
    vertex -6.732868699077638 -10.28776344389592 30
    vertex -6.968813041868494 -4.585461028911263 30
  endloop
endfacet
facet normal 0 0 1
  outer loop
    vertex -13.25100459443336 -9.058841160043713 30
    vertex -15.27341097052109 -15.27152701627194 30
    vertex -9.78271692483874 -14.79879392131597 30
  endloop
endfacet
facet normal 0 -0 1
  outer loop
    vertex -9.78271692483874 -14.79879392131597 30
    vertex -6.732868699077638 -10.28776344389592 30
    vertex -13.25100459443336 -9.058841160043713 30
  endloop
endfacet
facet normal -0 0 1
  outer loop
    vertex -13.51309559972848 -1.321726242273828 30
    vertex -6.968813041868494 -4.585461028911263 30
    vertex -7.108893839510795 2.408553562397844 30
  endloop
endfacet
facet normal 0 0 1
  outer loop
    vertex -7.108893839510795 2.408553562397844 30
    vertex -0.6718272420098705 6.043593419351722 30
    vertex -7.044294550506493 9.85323488172877 30
  endloop
endfacet
facet normal -0 0 1
  outer loop
    vertex -7.108893839510795 2.408553562397844 30
    vertex -0.7239788696570444 -1.225638101412443 30
    vertex -0.6718272420098705 6.043593419351722 30
  endloop
endfacet
facet normal 0 0 1
  outer loop
    vertex -7.108893839510795 2.408553562397844 30
    vertex -6.968813041868494 -4.585461028911263 30
    vertex -0.7239788696570444 -1.225638101412443 30
  endloop
endfacet
facet normal 0 -0 1
  outer loop
    vertex -0.6718272420098705 6.043593419351722 30
    vertex -0.5670178791398053 13.41481754590142 30
    vertex -7.044294550506493 9.85323488172877 30
  endloop
endfacet
facet normal 0 0 1
  outer loop
    vertex -0.5670178791398053 13.41481754590142 30
    vertex -6.929054508741054 17.24720422566261 30
    vertex -7.044294550506493 9.85323488172877 30
  endloop
endfacet
facet normal 0 0 1
  outer loop
    vertex -6.929054508741054 17.24720422566261 30
    vertex -13.47078708859982 13.65197247712558 30
    vertex -7.044294550506493 9.85323488172877 30
  endloop
endfacet
facet normal 0 0 1
  outer loop
    vertex -0.6718272420098705 6.043593419351722 30
    vertex 6.075298109942114 9.810834620654836 30
    vertex -0.5670178791398053 13.41481754590142 30
  endloop
endfacet
facet normal 0 0 1
  outer loop
    vertex -0.7239788696570444 -1.225638101412443 30
    vertex 5.787511841167076 2.417147360124645 30
    vertex -0.6718272420098705 6.043593419351722 30
  endloop
endfacet
facet normal 0 -0 1
  outer loop
    vertex 5.787511841167076 2.417147360124645 30
    vertex 6.075298109942114 9.810834620654836 30
    vertex -0.6718272420098705 6.043593419351722 30
  endloop
endfacet
facet normal 0 -0 1
  outer loop
    vertex -0.5670178791398053 13.41481754590142 30
    vertex -0.4166905221732186 20.71824380174836 30
    vertex -6.929054508741054 17.24720422566261 30
  endloop
endfacet
facet normal 0 0 1
  outer loop
    vertex -0.5670178791398053 13.41481754590142 30
    vertex 6.201798883655187 17.156307771447 30
    vertex -0.4166905221732186 20.71824380174836 30
  endloop
endfacet
facet normal -0 0 1
  outer loop
    vertex -0.5670178791398053 13.41481754590142 30
    vertex 6.075298109942114 9.810834620654836 30
    vertex 6.201798883655187 17.156307771447 30
  endloop
endfacet
facet normal -0 0 1
  outer loop
    vertex -0.7239788696570444 -1.225638101412443 30
    vertex 6.307464622668154 -4.421648059080699 30
    vertex 5.787511841167076 2.417147360124645 30
  endloop
endfacet
facet normal 0 0 1
  outer loop
    vertex -0.7239788696570444 -1.225638101412443 30
    vertex -0.2369358207118098 -8.518304951177853 30
    vertex 6.307464622668154 -4.421648059080699 30
  endloop
endfacet
facet normal -0 0 1
  outer loop
    vertex -6.968813041868494 -4.585461028911263 30
    vertex -0.2369358207118098 -8.518304951177853 30
    vertex -0.7239788696570444 -1.225638101412443 30
  endloop
endfacet
facet normal 0 0 1
  outer loop
    vertex 12.66312880416113 6.188971107891634 30
    vertex 6.075298109942114 9.810834620654836 30
    vertex 5.787511841167076 2.417147360124645 30
  endloop
endfacet
facet normal 0 0 1
  outer loop
    vertex 6.307464622668154 -4.421648059080699 30
    vertex 6.666666666666635 -10.13931552064659 30
    vertex 13.3742878996885 -8.642461094380785 30
  endloop
endfacet
facet normal -0 0 1
  outer loop
    vertex -0.2369358207118098 -8.518304951177853 30
    vertex 6.666666666666635 -10.13931552064659 30
    vertex 6.307464622668154 -4.421648059080699 30
  endloop
endfacet
facet normal 0 0 1
  outer loop
    vertex -0.4166905221732186 20.71824380174836 30
    vertex -6.733483999339759 24.24518452609604 30
    vertex -6.929054508741054 17.24720422566261 30
  endloop
endfacet
facet normal 0 -0 1
  outer loop
    vertex 6.201798883655187 17.156307771447 30
    vertex 6.374363139602419 24.5888992497061 30
    vertex -0.4166905221732186 20.71824380174836 30
  endloop
endfacet
facet normal 0 0 1
  outer loop
    vertex 6.374363139602419 24.5888992497061 30
    vertex -0.3507763974350294 28.70441257963143 30
    vertex -0.4166905221732186 20.71824380174836 30
  endloop
endfacet
facet normal 0 -0 1
  outer loop
    vertex -0.4166905221732186 20.71824380174836 30
    vertex -0.3507763974350294 28.70441257963143 30
    vertex -6.733483999339759 24.24518452609604 30
  endloop
endfacet
facet normal 0 0 1
  outer loop
    vertex 6.201798883655187 17.156307771447 30
    vertex 13.38875614769066 21.23502987427062 30
    vertex 6.374363139602419 24.5888992497061 30
  endloop
endfacet
facet normal 0 0 1
  outer loop
    vertex 6.660384747754147 31.87650115930833 30
    vertex -0.3507763974350294 28.70441257963143 30
    vertex 6.374363139602419 24.5888992497061 30
  endloop
endfacet
facet normal 0 -0 1
  outer loop
    vertex -6.733483999339759 24.24518452609604 30
    vertex -6.729559189593477 30.22651769301051 30
    vertex -13.16284695231627 28.89779966502007 30
  endloop
endfacet
facet normal 0 0 1
  outer loop
    vertex -0.3507763974350294 28.70441257963143 30
    vertex -6.729559189593477 30.22651769301051 30
    vertex -6.733483999339759 24.24518452609604 30
  endloop
endfacet
facet normal 0 0 1
  outer loop
    vertex -13.16284695231627 28.89779966502007 30
    vertex -6.729559189593477 30.22651769301051 30
    vertex -9.807650703842025 34.7440574986115 30
  endloop
endfacet
facet normal 0 0 1
  outer loop
    vertex -9.807650703842025 34.7440574986115 30
    vertex -15.26076619789832 35.22837143272631 30
    vertex -13.16284695231627 28.89779966502007 30
  endloop
endfacet
facet normal 0 0 1
  outer loop
    vertex -6.968813041868494 -4.585461028911263 30
    vertex -6.732868699077638 -10.28776344389592 30
    vertex -0.2369358207118098 -8.518304951177853 30
  endloop
endfacet
facet normal 0 0 1
  outer loop
    vertex 6.660384747754147 31.87650115930833 30
    vertex 1.876647424390311 35.02440958692665 30
    vertex -0.3507763974350294 28.70441257963143 30
  endloop
endfacet
facet normal 0 -0 1
  outer loop
    vertex 3.210192650934279 -14.55308070408075 30
    vertex 6.666666666666635 -10.13931552064659 30
    vertex -0.2369358207118098 -8.518304951177853 30
  endloop
endfacet
facet normal 0 0 -1
  outer loop
    vertex -20 40 0
    vertex -13.33333333333334 40 0
    vertex -15.27015695625853 35.26322005050309 0
  endloop
endfacet
facet normal 0 0 -1
  outer loop
    vertex -20 32.50000000000001 0
    vertex -20 40 0
    vertex -15.27015695625853 35.26322005050309 0
  endloop
endfacet
facet normal 0 0 -1
  outer loop
    vertex 13.33333333333332 40 0
    vertex 20 40 0
    vertex 16.66666666666666 36.52552229849653 0
  endloop
endfacet
facet normal 0 -0 -1
  outer loop
    vertex 20 40 0
    vertex 20 32.49999999999998 0
    vertex 16.66666666666666 36.52552229849653 0
  endloop
endfacet
facet normal 0 -0 -1
  outer loop
    vertex 20 -12.50000000000001 0
    vertex 20 -20 0
    vertex 15.21555665889372 -15.22959690406594 0
  endloop
endfacet
facet normal 0 0 -1
  outer loop
    vertex 20 -20 0
    vertex 13.33333333333334 -20 0
    vertex 15.21555665889372 -15.22959690406594 0
  endloop
endfacet
facet normal 0 0 -1
  outer loop
    vertex -13.33333333333332 -20 0
    vertex -20 -20 0
    vertex -15.2866034752375 -15.02327716317407 0
  endloop
endfacet
facet normal 0 0 -1
  outer loop
    vertex -20 -20 0
    vertex -20 -12.49999999999998 0
    vertex -15.2866034752375 -15.02327716317407 0
  endloop
endfacet
facet normal 0 0 -1
  outer loop
    vertex -13.33333333333334 40 0
    vertex -6.666666666666702 40 0
    vertex -9.767314886688439 34.75705845290081 0
  endloop
endfacet
facet normal 0 -0 -1
  outer loop
    vertex -13.33333333333334 40 0
    vertex -9.767314886688439 34.75705845290081 0
    vertex -15.27015695625853 35.26322005050309 0
  endloop
endfacet
facet normal 0 0 -1
  outer loop
    vertex -6.666666666666702 40 0
    vertex -3.469446951953614e-14 40 0
    vertex -3.333333333333368 34.22649730810375 0
  endloop
endfacet
facet normal 0 -0 -1
  outer loop
    vertex -6.666666666666702 40 0
    vertex -3.333333333333368 34.22649730810375 0
    vertex -9.767314886688439 34.75705845290081 0
  endloop
endfacet
facet normal 0 0 -1
  outer loop
    vertex -3.469446951953614e-14 40 0
    vertex 6.666666666666645 40 0
    vertex 1.932228875915163 34.99226452694949 0
  endloop
endfacet
facet normal 0 0 -1
  outer loop
    vertex -3.333333333333368 34.22649730810375 0
    vertex -3.469446951953614e-14 40 0
    vertex 1.932228875915163 34.99226452694949 0
  endloop
endfacet
facet normal 0 0 -1
  outer loop
    vertex 6.666666666666645 40 0
    vertex 13.33333333333332 40 0
    vertex 12.36676942771041 34.35896047298304 0
  endloop
endfacet
facet normal 0 0 -1
  outer loop
    vertex 6.719477164023666 31.86458010734999 0
    vertex 6.666666666666645 40 0
    vertex 12.36676942771041 34.35896047298304 0
  endloop
endfacet
facet normal 0 -0 -1
  outer loop
    vertex 6.666666666666645 40 0
    vertex 6.719477164023666 31.86458010734999 0
    vertex 1.932228875915163 34.99226452694949 0
  endloop
endfacet
facet normal 0 0 -1
  outer loop
    vertex 12.36676942771041 34.35896047298304 0
    vertex 13.33333333333332 40 0
    vertex 16.66666666666666 36.52552229849653 0
  endloop
endfacet
facet normal 0 -0 -1
  outer loop
    vertex 20 32.49999999999998 0
    vertex 20 24.99999999999996 0
    vertex 13.5048094716167 28.74999999999997 0
  endloop
endfacet
facet normal -0 0 -1
  outer loop
    vertex 20 32.49999999999998 0
    vertex 13.5048094716167 28.74999999999997 0
    vertex 12.36676942771041 34.35896047298304 0
  endloop
endfacet
facet normal 0 0 -1
  outer loop
    vertex 20 32.49999999999998 0
    vertex 12.36676942771041 34.35896047298304 0
    vertex 16.66666666666666 36.52552229849653 0
  endloop
endfacet
facet normal 0 -0 -1
  outer loop
    vertex 20 24.99999999999996 0
    vertex 20 17.49999999999996 0
    vertex 12.7613653538851 21.34081390979051 0
  endloop
endfacet
facet normal 0 -0 -1
  outer loop
    vertex 13.5048094716167 28.74999999999997 0
    vertex 20 24.99999999999996 0
    vertex 12.7613653538851 21.34081390979051 0
  endloop
endfacet
facet normal 0 -0 -1
  outer loop
    vertex 20 17.49999999999996 0
    vertex 20 9.999999999999972 0
    vertex 13.01052130937651 13.83627260073008 0
  endloop
endfacet
facet normal -0 0 -1
  outer loop
    vertex 20 17.49999999999996 0
    vertex 13.01052130937651 13.83627260073008 0
    vertex 12.7613653538851 21.34081390979051 0
  endloop
endfacet
facet normal 0 -0 -1
  outer loop
    vertex 20 9.999999999999972 0
    vertex 20 2.49999999999998 0
    vertex 13.11175276118287 6.387988173472191 0
  endloop
endfacet
facet normal 0 0 -1
  outer loop
    vertex 13.01052130937651 13.83627260073008 0
    vertex 20 9.999999999999972 0
    vertex 13.11175276118287 6.387988173472191 0
  endloop
endfacet
facet normal 0 -0 -1
  outer loop
    vertex 20 2.49999999999998 0
    vertex 20 -5.000000000000014 0
    vertex 12.99288945460431 -1.111504384055854 0
  endloop
endfacet
facet normal -0 0 -1
  outer loop
    vertex 20 2.49999999999998 0
    vertex 12.99288945460431 -1.111504384055854 0
    vertex 13.11175276118287 6.387988173472191 0
  endloop
endfacet
facet normal 0 -0 -1
  outer loop
    vertex 20 -5.000000000000014 0
    vertex 20 -12.50000000000001 0
    vertex 13.01230847303042 -8.929498552361746 0
  endloop
endfacet
facet normal 0 0 -1
  outer loop
    vertex 12.99288945460431 -1.111504384055854 0
    vertex 20 -5.000000000000014 0
    vertex 13.01230847303042 -8.929498552361746 0
  endloop
endfacet
facet normal 0 0 -1
  outer loop
    vertex 13.01230847303042 -8.929498552361746 0
    vertex 20 -12.50000000000001 0
    vertex 15.21555665889372 -15.22959690406594 0
  endloop
endfacet
facet normal 0 0 -1
  outer loop
    vertex 13.33333333333334 -20 0
    vertex 6.666666666666702 -20 0
    vertex 9.732141488104826 -14.71848596796795 0
  endloop
endfacet
facet normal 0 0 -1
  outer loop
    vertex 13.33333333333334 -20 0
    vertex 9.732141488104826 -14.71848596796795 0
    vertex 15.21555665889372 -15.22959690406594 0
  endloop
endfacet
facet normal 0 0 -1
  outer loop
    vertex 6.666666666666702 -20 0
    vertex 3.469446951953614e-14 -20 0
    vertex 3.291372032309041 -14.45716262822295 0
  endloop
endfacet
facet normal 0 0 -1
  outer loop
    vertex 6.666666666666702 -20 0
    vertex 3.291372032309041 -14.45716262822295 0
    vertex 9.732141488104826 -14.71848596796795 0
  endloop
endfacet
facet normal 0 0 -1
  outer loop
    vertex 3.469446951953614e-14 -20 0
    vertex -6.666666666666645 -20 0
    vertex -3.343921117604623 -14.55293603645919 0
  endloop
endfacet
facet normal 0 0 -1
  outer loop
    vertex 3.291372032309041 -14.45716262822295 0
    vertex 3.469446951953614e-14 -20 0
    vertex -3.343921117604623 -14.55293603645919 0
  endloop
endfacet
facet normal 0 0 -1
  outer loop
    vertex -6.666666666666645 -20 0
    vertex -13.33333333333332 -20 0
    vertex -9.843391373499111 -14.58679466353594 0
  endloop
endfacet
facet normal 0 0 -1
  outer loop
    vertex -6.666666666666645 -20 0
    vertex -9.843391373499111 -14.58679466353594 0
    vertex -3.343921117604623 -14.55293603645919 0
  endloop
endfacet
facet normal 0 0 -1
  outer loop
    vertex -9.843391373499111 -14.58679466353594 0
    vertex -13.33333333333332 -20 0
    vertex -15.2866034752375 -15.02327716317407 0
  endloop
endfacet
facet normal 0 0 -1
  outer loop
    vertex -20 -12.49999999999998 0
    vertex -20 -4.999999999999961 0
    vertex -13.46392806496672 -8.607515598686071 0
  endloop
endfacet
facet normal 0 0 -1
  outer loop
    vertex -20 -12.49999999999998 0
    vertex -13.46392806496672 -8.607515598686071 0
    vertex -15.2866034752375 -15.02327716317407 0
  endloop
endfacet
facet normal 0 0 -1
  outer loop
    vertex -20 -4.999999999999961 0
    vertex -20 2.500000000000035 0
    vertex -13.44763778113471 -1.077222563147817 0
  endloop
endfacet
facet normal 0 0 -1
  outer loop
    vertex -20 -4.999999999999961 0
    vertex -13.44763778113471 -1.077222563147817 0
    vertex -13.46392806496672 -8.607515598686071 0
  endloop
endfacet
facet normal 0 0 -1
  outer loop
    vertex -20 2.500000000000035 0
    vertex -20 10.00000000000003 0
    vertex -13.46983194305322 6.342012683726822 0
  endloop
endfacet
facet normal 0 0 -1
  outer loop
    vertex -13.44763778113471 -1.077222563147817 0
    vertex -20 2.500000000000035 0
    vertex -13.46983194305322 6.342012683726822 0
  endloop
endfacet
facet normal 0 0 -1
  outer loop
    vertex -20 10.00000000000003 0
    vertex -20 17.50000000000002 0
    vertex -13.50440674173556 13.78726092187116 0
  endloop
endfacet
facet normal 0 0 -1
  outer loop
    vertex -20 10.00000000000003 0
    vertex -13.50440674173556 13.78726092187116 0
    vertex -13.46983194305322 6.342012683726822 0
  endloop
endfacet
facet normal 0 0 -1
  outer loop
    vertex -20 17.50000000000002 0
    vertex -20 25.00000000000001 0
    vertex -13.50233593988183 21.32152301299483 0
  endloop
endfacet
facet normal 0 0 -1
  outer loop
    vertex -13.50440674173556 13.78726092187116 0
    vertex -20 17.50000000000002 0
    vertex -13.50233593988183 21.32152301299483 0
  endloop
endfacet
facet normal 0 0 -1
  outer loop
    vertex -20 25.00000000000001 0
    vertex -20 32.50000000000001 0
    vertex -13.25013656127086 29.05904179961468 0
  endloop
endfacet
facet normal 0 0 -1
  outer loop
    vertex -20 25.00000000000001 0
    vertex -13.25013656127086 29.05904179961468 0
    vertex -13.50233593988183 21.32152301299483 0
  endloop
endfacet
facet normal 0 0 -1
  outer loop
    vertex -13.25013656127086 29.05904179961468 0
    vertex -20 32.50000000000001 0
    vertex -15.27015695625853 35.26322005050309 0
  endloop
endfacet
facet normal 0 0 -1
  outer loop
    vertex 13.01052130937651 13.83627260073008 0
    vertex 5.730208246687205 17.72126379251075 0
    vertex 12.7613653538851 21.34081390979051 0
  endloop
endfacet
facet normal 0 0 -1
  outer loop
    vertex 5.730208246687205 17.72126379251075 0
    vertex 13.01052130937651 13.83627260073008 0
    vertex 6.448331892387661 10.30954473809095 0
  endloop
endfacet
facet normal 0 -0 -1
  outer loop
    vertex 13.01052130937651 13.83627260073008 0
    vertex 13.11175276118287 6.387988173472191 0
    vertex 6.448331892387661 10.30954473809095 0
  endloop
endfacet
facet normal 0 0 -1
  outer loop
    vertex -13.44763778113471 -1.077222563147817 0
    vertex -6.882205767220506 2.719248844430378 0
    vertex -6.921228928916642 -4.251256988425135 0
  endloop
endfacet
facet normal -0 0 -1
  outer loop
    vertex -6.882205767220506 2.719248844430378 0
    vertex -13.44763778113471 -1.077222563147817 0
    vertex -13.46983194305322 6.342012683726822 0
  endloop
endfacet
facet normal 0 -0 -1
  outer loop
    vertex -13.44763778113471 -1.077222563147817 0
    vertex -6.921228928916642 -4.251256988425135 0
    vertex -13.46392806496672 -8.607515598686071 0
  endloop
endfacet
facet normal 0 0 -1
  outer loop
    vertex -9.767314886688439 34.75705845290081 0
    vertex -3.333333333333368 34.22649730810375 0
    vertex -6.732949736030445 30.30183968150208 0
  endloop
endfacet
facet normal 0 0 -1
  outer loop
    vertex -0.391666117781092 28.8702452192937 0
    vertex -3.333333333333368 34.22649730810375 0
    vertex 1.932228875915163 34.99226452694949 0
  endloop
endfacet
facet normal 0 -0 -1
  outer loop
    vertex -3.333333333333368 34.22649730810375 0
    vertex -0.391666117781092 28.8702452192937 0
    vertex -6.732949736030445 30.30183968150208 0
  endloop
endfacet
facet normal 0 -0 -1
  outer loop
    vertex -0.1781740311044248 -8.28685582365846 0
    vertex 3.291372032309041 -14.45716262822295 0
    vertex -3.343921117604623 -14.55293603645919 0
  endloop
endfacet
facet normal 0 0 -1
  outer loop
    vertex 3.291372032309041 -14.45716262822295 0
    vertex -0.1781740311044248 -8.28685582365846 0
    vertex 6.372349879131802 -10.15514925305639 0
  endloop
endfacet
facet normal 0 0 -1
  outer loop
    vertex 9.732141488104826 -14.71848596796795 0
    vertex 3.291372032309041 -14.45716262822295 0
    vertex 6.372349879131802 -10.15514925305639 0
  endloop
endfacet
facet normal 0 0 -1
  outer loop
    vertex -13.50440674173556 13.78726092187116 0
    vertex -13.50233593988183 21.32152301299483 0
    vertex -7.074228405724206 17.58851188507256 0
  endloop
endfacet
facet normal 0 0 -1
  outer loop
    vertex -13.50440674173556 13.78726092187116 0
    vertex -7.074228405724206 17.58851188507256 0
    vertex -6.984741368228548 10.12278889920715 0
  endloop
endfacet
facet normal 0 0 -1
  outer loop
    vertex -13.50440674173556 13.78726092187116 0
    vertex -6.984741368228548 10.12278889920715 0
    vertex -13.46983194305322 6.342012683726822 0
  endloop
endfacet
facet normal 0 -0 -1
  outer loop
    vertex 6.218773910728721 2.793616086068017 0
    vertex 12.99288945460431 -1.111504384055854 0
    vertex 6.00410143331915 -4.383743293070827 0
  endloop
endfacet
facet normal 0 0 -1
  outer loop
    vertex 12.99288945460431 -1.111504384055854 0
    vertex 6.218773910728721 2.793616086068017 0
    vertex 13.11175276118287 6.387988173472191 0
  endloop
endfacet
facet normal 0 0 -1
  outer loop
    vertex 6.00410143331915 -4.383743293070827 0
    vertex 12.99288945460431 -1.111504384055854 0
    vertex 13.01230847303042 -8.929498552361746 0
  endloop
endfacet
facet normal 0 0 -1
  outer loop
    vertex 6.05451711835444 24.98998529172493 0
    vertex 13.5048094716167 28.74999999999997 0
    vertex 12.7613653538851 21.34081390979051 0
  endloop
endfacet
facet normal -0 0 -1
  outer loop
    vertex 13.5048094716167 28.74999999999997 0
    vertex 6.05451711835444 24.98998529172493 0
    vertex 6.719477164023666 31.86458010734999 0
  endloop
endfacet
facet normal 0 0 -1
  outer loop
    vertex 13.5048094716167 28.74999999999997 0
    vertex 6.719477164023666 31.86458010734999 0
    vertex 12.36676942771041 34.35896047298304 0
  endloop
endfacet
facet normal -0 0 -1
  outer loop
    vertex -3.343921117604623 -14.55293603645919 0
    vertex -9.843391373499111 -14.58679466353594 0
    vertex -6.750128703218305 -10.05707182215296 0
  endloop
endfacet
facet normal 0 0 -1
  outer loop
    vertex -9.843391373499111 -14.58679466353594 0
    vertex -13.46392806496672 -8.607515598686071 0
    vertex -6.750128703218305 -10.05707182215296 0
  endloop
endfacet
facet normal 0 -0 -1
  outer loop
    vertex -13.46392806496672 -8.607515598686071 0
    vertex -9.843391373499111 -14.58679466353594 0
    vertex -15.2866034752375 -15.02327716317407 0
  endloop
endfacet
facet normal 0 0 -1
  outer loop
    vertex -13.50233593988183 21.32152301299483 0
    vertex -13.25013656127086 29.05904179961468 0
    vertex -6.922297781078459 24.59635562759745 0
  endloop
endfacet
facet normal 0 0 -1
  outer loop
    vertex -6.922297781078459 24.59635562759745 0
    vertex -13.25013656127086 29.05904179961468 0
    vertex -6.732949736030445 30.30183968150208 0
  endloop
endfacet
facet normal -0 0 -1
  outer loop
    vertex -9.767314886688439 34.75705845290081 0
    vertex -13.25013656127086 29.05904179961468 0
    vertex -15.27015695625853 35.26322005050309 0
  endloop
endfacet
facet normal 0 0 -1
  outer loop
    vertex -13.25013656127086 29.05904179961468 0
    vertex -9.767314886688439 34.75705845290081 0
    vertex -6.732949736030445 30.30183968150208 0
  endloop
endfacet
facet normal 0 0 -1
  outer loop
    vertex -7.074228405724206 17.58851188507256 0
    vertex -13.50233593988183 21.32152301299483 0
    vertex -6.922297781078459 24.59635562759745 0
  endloop
endfacet
facet normal 0 0 -1
  outer loop
    vertex -6.984741368228548 10.12278889920715 0
    vertex -7.074228405724206 17.58851188507256 0
    vertex -0.5070964878551339 13.93843412292667 0
  endloop
endfacet
facet normal 0 0 -1
  outer loop
    vertex -0.5070964878551339 13.93843412292667 0
    vertex -7.074228405724206 17.58851188507256 0
    vertex -0.6204007912572914 21.24152970844757 0
  endloop
endfacet
facet normal -0 0 -1
  outer loop
    vertex -0.6204007912572914 21.24152970844757 0
    vertex -7.074228405724206 17.58851188507256 0
    vertex -6.922297781078459 24.59635562759745 0
  endloop
endfacet
facet normal 0 0 -1
  outer loop
    vertex -6.984741368228548 10.12278889920715 0
    vertex -0.5070964878551339 13.93843412292667 0
    vertex -0.3944799954878246 6.523205079090287 0
  endloop
endfacet
facet normal 0 0 -1
  outer loop
    vertex -6.984741368228548 10.12278889920715 0
    vertex -0.3944799954878246 6.523205079090287 0
    vertex -6.882205767220506 2.719248844430378 0
  endloop
endfacet
facet normal 0 -0 -1
  outer loop
    vertex -6.984741368228548 10.12278889920715 0
    vertex -6.882205767220506 2.719248844430378 0
    vertex -13.46983194305322 6.342012683726822 0
  endloop
endfacet
facet normal 0 0 -1
  outer loop
    vertex -0.3944799954878246 6.523205079090287 0
    vertex -0.5070964878551339 13.93843412292667 0
    vertex 6.448331892387661 10.30954473809095 0
  endloop
endfacet
facet normal 0 0 -1
  outer loop
    vertex -0.5070964878551339 13.93843412292667 0
    vertex -0.6204007912572914 21.24152970844757 0
    vertex 5.730208246687205 17.72126379251075 0
  endloop
endfacet
facet normal 0 0 -1
  outer loop
    vertex -0.5070964878551339 13.93843412292667 0
    vertex 5.730208246687205 17.72126379251075 0
    vertex 6.448331892387661 10.30954473809095 0
  endloop
endfacet
facet normal 0 0 -1
  outer loop
    vertex -6.882205767220506 2.719248844430378 0
    vertex -0.3944799954878246 6.523205079090287 0
    vertex -0.3967401038420564 -0.8258056236464384 0
  endloop
endfacet
facet normal 0 0 -1
  outer loop
    vertex -0.3967401038420564 -0.8258056236464384 0
    vertex -0.3944799954878246 6.523205079090287 0
    vertex 6.218773910728721 2.793616086068017 0
  endloop
endfacet
facet normal 0 0 -1
  outer loop
    vertex 6.218773910728721 2.793616086068017 0
    vertex -0.3944799954878246 6.523205079090287 0
    vertex 6.448331892387661 10.30954473809095 0
  endloop
endfacet
facet normal 0 0 -1
  outer loop
    vertex 5.730208246687205 17.72126379251075 0
    vertex -0.6204007912572914 21.24152970844757 0
    vertex 6.05451711835444 24.98998529172493 0
  endloop
endfacet
facet normal -0 0 -1
  outer loop
    vertex 6.05451711835444 24.98998529172493 0
    vertex -0.6204007912572914 21.24152970844757 0
    vertex -0.391666117781092 28.8702452192937 0
  endloop
endfacet
facet normal 0 0 -1
  outer loop
    vertex -0.6204007912572914 21.24152970844757 0
    vertex -6.922297781078459 24.59635562759745 0
    vertex -0.391666117781092 28.8702452192937 0
  endloop
endfacet
facet normal 0 0 -1
  outer loop
    vertex 5.730208246687205 17.72126379251075 0
    vertex 6.05451711835444 24.98998529172493 0
    vertex 12.7613653538851 21.34081390979051 0
  endloop
endfacet
facet normal 0 0 -1
  outer loop
    vertex 6.719477164023666 31.86458010734999 0
    vertex 6.05451711835444 24.98998529172493 0
    vertex -0.391666117781092 28.8702452192937 0
  endloop
endfacet
facet normal 0 -0 -1
  outer loop
    vertex -6.882205767220506 2.719248844430378 0
    vertex -0.3967401038420564 -0.8258056236464384 0
    vertex -6.921228928916642 -4.251256988425135 0
  endloop
endfacet
facet normal 0 0 -1
  outer loop
    vertex -0.3967401038420564 -0.8258056236464384 0
    vertex 6.218773910728721 2.793616086068017 0
    vertex 6.00410143331915 -4.383743293070827 0
  endloop
endfacet
facet normal 0 0 -1
  outer loop
    vertex -0.3967401038420564 -0.8258056236464384 0
    vertex 6.00410143331915 -4.383743293070827 0
    vertex -0.1781740311044248 -8.28685582365846 0
  endloop
endfacet
facet normal 0 0 -1
  outer loop
    vertex -6.921228928916642 -4.251256988425135 0
    vertex -0.3967401038420564 -0.8258056236464384 0
    vertex -0.1781740311044248 -8.28685582365846 0
  endloop
endfacet
facet normal -0 0 -1
  outer loop
    vertex 13.11175276118287 6.387988173472191 0
    vertex 6.218773910728721 2.793616086068017 0
    vertex 6.448331892387661 10.30954473809095 0
  endloop
endfacet
facet normal 0 0 -1
  outer loop
    vertex 6.00410143331915 -4.383743293070827 0
    vertex 13.01230847303042 -8.929498552361746 0
    vertex 6.372349879131802 -10.15514925305639 0
  endloop
endfacet
facet normal 0 0 -1
  outer loop
    vertex -0.1781740311044248 -8.28685582365846 0
    vertex 6.00410143331915 -4.383743293070827 0
    vertex 6.372349879131802 -10.15514925305639 0
  endloop
endfacet
facet normal 0 0 -1
  outer loop
    vertex 13.01230847303042 -8.929498552361746 0
    vertex 9.732141488104826 -14.71848596796795 0
    vertex 6.372349879131802 -10.15514925305639 0
  endloop
endfacet
facet normal 0 0 -1
  outer loop
    vertex 9.732141488104826 -14.71848596796795 0
    vertex 13.01230847303042 -8.929498552361746 0
    vertex 15.21555665889372 -15.22959690406594 0
  endloop
endfacet
facet normal 0 0 -1
  outer loop
    vertex -6.921228928916642 -4.251256988425135 0
    vertex -0.1781740311044248 -8.28685582365846 0
    vertex -6.750128703218305 -10.05707182215296 0
  endloop
endfacet
facet normal 0 0 -1
  outer loop
    vertex -13.46392806496672 -8.607515598686071 0
    vertex -6.921228928916642 -4.251256988425135 0
    vertex -6.750128703218305 -10.05707182215296 0
  endloop
endfacet
facet normal -0 0 -1
  outer loop
    vertex 6.719477164023666 31.86458010734999 0
    vertex -0.391666117781092 28.8702452192937 0
    vertex 1.932228875915163 34.99226452694949 0
  endloop
endfacet
facet normal -0 0 -1
  outer loop
    vertex -0.391666117781092 28.8702452192937 0
    vertex -6.922297781078459 24.59635562759745 0
    vertex -6.732949736030445 30.30183968150208 0
  endloop
endfacet
facet normal 0 0 -1
  outer loop
    vertex -0.1781740311044248 -8.28685582365846 0
    vertex -3.343921117604623 -14.55293603645919 0
    vertex -6.750128703218305 -10.05707182215296 0
  endloop
endfacet
facet normal 1 0 0
  outer loop
    vertex 20 40 30
    vertex 20 32.50000000000001 30
    vertex 20 34.65831241593091 24.70213557005543
  endloop
endfacet
facet normal 1 0 -0
  outer loop
    vertex 20 40 22.49999999999998
    vertex 20 40 30
    vertex 20 34.65831241593091 24.70213557005543
  endloop
endfacet
facet normal 1 0 0
  outer loop
    vertex 20 -12.49999999999998 30
    vertex 20 -20 30
    vertex 20 -14.61495565361917 24.89563968182024
  endloop
endfacet
facet normal 1 0 0
  outer loop
    vertex 20 -20 30
    vertex 20 -20 22.49999999999998
    vertex 20 -14.61495565361917 24.89563968182024
  endloop
endfacet
facet normal 1 0 0
  outer loop
    vertex 20 32.49999999999998 0
    vertex 20 40 0
    vertex 20 34.50961894323339 5.490381056766598
  endloop
endfacet
facet normal 1 0 -0
  outer loop
    vertex 20 40 0
    vertex 20 40 7.499999999999993
    vertex 20 34.50961894323339 5.490381056766598
  endloop
endfacet
facet normal 1 0 0
  outer loop
    vertex 20 -20 0
    vertex 20 -12.50000000000001 0
    vertex 20 -14.50961894323342 5.490381056766578
  endloop
endfacet
facet normal 1 0 0
  outer loop
    vertex 20 -20 7.499999999999993
    vertex 20 -20 0
    vertex 20 -14.50961894323342 5.490381056766578
  endloop
endfacet
facet normal 1 0 0
  outer loop
    vertex 20 -4.999999999999961 30
    vertex 20 -12.49999999999998 30
    vertex 20 -8.41897674521072 24.28799924267647
  endloop
endfacet
facet normal 1 0 0
  outer loop
    vertex 20 -8.41897674521072 24.28799924267647
    vertex 20 -12.49999999999998 30
    vertex 20 -14.61495565361917 24.89563968182024
  endloop
endfacet
facet normal 1 0 0
  outer loop
    vertex 20 2.500000000000035 30
    vertex 20 -4.999999999999961 30
    vertex 20 -1.181425827399886 23.85538785457731
  endloop
endfacet
facet normal 1 0 0
  outer loop
    vertex 20 -1.181425827399886 23.85538785457731
    vertex 20 -4.999999999999961 30
    vertex 20 -8.41897674521072 24.28799924267647
  endloop
endfacet
facet normal 1 0 0
  outer loop
    vertex 20 10.00000000000003 30
    vertex 20 2.500000000000035 30
    vertex 20 6.25000000000003 23.50480947161672
  endloop
endfacet
facet normal 1 0 0
  outer loop
    vertex 20 2.500000000000035 30
    vertex 20 -1.181425827399886 23.85538785457731
    vertex 20 6.25000000000003 23.50480947161672
  endloop
endfacet
facet normal 1 0 0
  outer loop
    vertex 20 17.50000000000002 30
    vertex 20 10.00000000000003 30
    vertex 20 14.5297959527802 23.37139255318801
  endloop
endfacet
facet normal 1 0 0
  outer loop
    vertex 20 14.5297959527802 23.37139255318801
    vertex 20 10.00000000000003 30
    vertex 20 6.25000000000003 23.50480947161672
  endloop
endfacet
facet normal 1 0 0
  outer loop
    vertex 20 25.00000000000001 30
    vertex 20 17.50000000000002 30
    vertex 20 21.25000000000001 25.41150973291479
  endloop
endfacet
facet normal 1 0 0
  outer loop
    vertex 20 17.50000000000002 30
    vertex 20 14.5297959527802 23.37139255318801
    vertex 20 21.25000000000001 25.41150973291479
  endloop
endfacet
facet normal 1 0 0
  outer loop
    vertex 20 32.50000000000001 30
    vertex 20 25.00000000000001 30
    vertex 20 28.24969587051021 23.88886857332375
  endloop
endfacet
facet normal 1 0 0
  outer loop
    vertex 20 28.24969587051021 23.88886857332375
    vertex 20 25.00000000000001 30
    vertex 20 21.25000000000001 25.41150973291479
  endloop
endfacet
facet normal 1 0 0
  outer loop
    vertex 20 32.50000000000001 30
    vertex 20 28.24969587051021 23.88886857332375
    vertex 20 34.65831241593091 24.70213557005543
  endloop
endfacet
facet normal 1 0 0
  outer loop
    vertex 20 24.99999999999996 0
    vertex 20 32.49999999999998 0
    vertex 20 28.71821973039339 6.35079033791874
  endloop
endfacet
facet normal 1 0 0
  outer loop
    vertex 20 28.71821973039339 6.35079033791874
    vertex 20 32.49999999999998 0
    vertex 20 34.50961894323339 5.490381056766598
  endloop
endfacet
facet normal 1 0 0
  outer loop
    vertex 20 17.49999999999996 0
    vertex 20 24.99999999999996 0
    vertex 20 21.24999999999996 6.495190528383285
  endloop
endfacet
facet normal 1 0 0
  outer loop
    vertex 20 21.24999999999996 6.495190528383285
    vertex 20 24.99999999999996 0
    vertex 20 28.71821973039339 6.35079033791874
  endloop
endfacet
facet normal 1 0 0
  outer loop
    vertex 20 9.999999999999972 0
    vertex 20 17.49999999999996 0
    vertex 20 13.65176738578622 6.183402220444851
  endloop
endfacet
facet normal 1 0 -0
  outer loop
    vertex 20 17.49999999999996 0
    vertex 20 21.24999999999996 6.495190528383285
    vertex 20 13.65176738578622 6.183402220444851
  endloop
endfacet
facet normal 1 0 0
  outer loop
    vertex 20 2.49999999999998 0
    vertex 20 9.999999999999972 0
    vertex 20 6.249999999999976 6.495190528383283
  endloop
endfacet
facet normal 1 0 0
  outer loop
    vertex 20 6.249999999999976 6.495190528383283
    vertex 20 9.999999999999972 0
    vertex 20 13.65176738578622 6.183402220444851
  endloop
endfacet
facet normal 1 0 0
  outer loop
    vertex 20 -5.000000000000014 0
    vertex 20 2.49999999999998 0
    vertex 20 -1.24470328839892 6.153340453089513
  endloop
endfacet
facet normal 1 0 -0
  outer loop
    vertex 20 2.49999999999998 0
    vertex 20 6.249999999999976 6.495190528383283
    vertex 20 -1.24470328839892 6.153340453089513
  endloop
endfacet
facet normal 1 0 0
  outer loop
    vertex 20 -12.50000000000001 0
    vertex 20 -5.000000000000014 0
    vertex 20 -8.718219730393436 6.350790337918735
  endloop
endfacet
facet normal 1 0 0
  outer loop
    vertex 20 -8.718219730393436 6.350790337918735
    vertex 20 -5.000000000000014 0
    vertex 20 -1.24470328839892 6.153340453089513
  endloop
endfacet
facet normal 1 0 -0
  outer loop
    vertex 20 -12.50000000000001 0
    vertex 20 -8.718219730393436 6.350790337918735
    vertex 20 -14.50961894323342 5.490381056766578
  endloop
endfacet
facet normal 1 0 0
  outer loop
    vertex 20 -20 22.49999999999998
    vertex 20 -20 14.99999999999999
    vertex 20 -12.36647494365669 18.46224064359837
  endloop
endfacet
facet normal 1 -0 0
  outer loop
    vertex 20 -20 22.49999999999998
    vertex 20 -12.36647494365669 18.46224064359837
    vertex 20 -14.61495565361917 24.89563968182024
  endloop
endfacet
facet normal 1 0 0
  outer loop
    vertex 20 -20 14.99999999999999
    vertex 20 -20 7.499999999999993
    vertex 20 -13.53080300109127 11.12892671026833
  endloop
endfacet
facet normal 1 0 0
  outer loop
    vertex 20 -12.36647494365669 18.46224064359837
    vertex 20 -20 14.99999999999999
    vertex 20 -13.53080300109127 11.12892671026833
  endloop
endfacet
facet normal 1 0 0
  outer loop
    vertex 20 -13.53080300109127 11.12892671026833
    vertex 20 -20 7.499999999999993
    vertex 20 -14.50961894323342 5.490381056766578
  endloop
endfacet
facet normal 1 0 -0
  outer loop
    vertex 20 40 14.99999999999999
    vertex 20 40 22.49999999999998
    vertex 20 34.11194824567741 19.31453068728778
  endloop
endfacet
facet normal 1 0 0
  outer loop
    vertex 20 34.11194824567741 19.31453068728778
    vertex 20 40 22.49999999999998
    vertex 20 34.65831241593091 24.70213557005543
  endloop
endfacet
facet normal 1 0 -0
  outer loop
    vertex 20 40 7.499999999999993
    vertex 20 40 14.99999999999999
    vertex 20 33.1040706886364 11.93261137953079
  endloop
endfacet
facet normal 1 0 0
  outer loop
    vertex 20 40 14.99999999999999
    vertex 20 34.11194824567741 19.31453068728778
    vertex 20 33.1040706886364 11.93261137953079
  endloop
endfacet
facet normal 1 0 0
  outer loop
    vertex 20 40 7.499999999999993
    vertex 20 33.1040706886364 11.93261137953079
    vertex 20 34.50961894323339 5.490381056766598
  endloop
endfacet
facet normal 1 0 0
  outer loop
    vertex 20 6.25000000000003 23.50480947161672
    vertex 20 -1.181425827399886 23.85538785457731
    vertex 20 2.500000000000036 17.00961894323343
  endloop
endfacet
facet normal 1 0 0
  outer loop
    vertex 20 2.500000000000036 17.00961894323343
    vertex 20 -1.181425827399886 23.85538785457731
    vertex 20 -4.922029486607379 19.28242662197521
  endloop
endfacet
facet normal 1 0 0
  outer loop
    vertex 20 -1.181425827399886 23.85538785457731
    vertex 20 -8.41897674521072 24.28799924267647
    vertex 20 -4.922029486607379 19.28242662197521
  endloop
endfacet
facet normal 1 -0 0
  outer loop
    vertex 20 14.5297959527802 23.37139255318801
    vertex 20 21.28053250922203 19.42413031612844
    vertex 20 21.25000000000001 25.41150973291479
  endloop
endfacet
facet normal 1 0 0
  outer loop
    vertex 20 21.28053250922203 19.42413031612844
    vertex 20 14.5297959527802 23.37139255318801
    vertex 20 15.63293402346881 18.24301150471342
  endloop
endfacet
facet normal 1 0 0
  outer loop
    vertex 20 14.5297959527802 23.37139255318801
    vertex 20 6.25000000000003 23.50480947161672
    vertex 20 10.48035475654415 17.36050140190192
  endloop
endfacet
facet normal 1 0 0
  outer loop
    vertex 20 14.5297959527802 23.37139255318801
    vertex 20 10.48035475654415 17.36050140190192
    vertex 20 15.63293402346881 18.24301150471342
  endloop
endfacet
facet normal 1 0 0
  outer loop
    vertex 20 -1.24470328839892 6.153340453089513
    vertex 20 6.249999999999976 6.495190528383283
    vertex 20 2.215496240867886 10.86296544876154
  endloop
endfacet
facet normal 1 -0 0
  outer loop
    vertex 20 6.249999999999976 6.495190528383283
    vertex 20 13.65176738578622 6.183402220444851
    vertex 20 8.715454409507974 11.859790893311
  endloop
endfacet
facet normal 1 0 -0
  outer loop
    vertex 20 6.249999999999976 6.495190528383283
    vertex 20 8.715454409507974 11.859790893311
    vertex 20 2.215496240867886 10.86296544876154
  endloop
endfacet
facet normal 1 -0 0
  outer loop
    vertex 20 21.24999999999996 6.495190528383285
    vertex 20 28.71821973039339 6.35079033791874
    vertex 20 25.0153506147701 12.52768693128747
  endloop
endfacet
facet normal 1 0 -0
  outer loop
    vertex 20 21.24999999999996 6.495190528383285
    vertex 20 25.0153506147701 12.52768693128747
    vertex 20 16.91060431471747 13.02635147043403
  endloop
endfacet
facet normal 1 0 0
  outer loop
    vertex 20 21.24999999999996 6.495190528383285
    vertex 20 16.91060431471747 13.02635147043403
    vertex 20 13.65176738578622 6.183402220444851
  endloop
endfacet
facet normal 1 0 -0
  outer loop
    vertex 20 33.1040706886364 11.93261137953079
    vertex 20 34.11194824567741 19.31453068728778
    vertex 20 27.91022681911902 17.93163672227409
  endloop
endfacet
facet normal 1 0 0
  outer loop
    vertex 20 34.11194824567741 19.31453068728778
    vertex 20 28.24969587051021 23.88886857332375
    vertex 20 27.91022681911902 17.93163672227409
  endloop
endfacet
facet normal 1 -0 0
  outer loop
    vertex 20 28.24969587051021 23.88886857332375
    vertex 20 34.11194824567741 19.31453068728778
    vertex 20 34.65831241593091 24.70213557005543
  endloop
endfacet
facet normal 1 -0 0
  outer loop
    vertex 20 -8.718219730393436 6.350790337918735
    vertex 20 -1.24470328839892 6.153340453089513
    vertex 20 -5.143269916769629 12.79688642579046
  endloop
endfacet
facet normal 1 0 -0
  outer loop
    vertex 20 -8.718219730393436 6.350790337918735
    vertex 20 -5.143269916769629 12.79688642579046
    vertex 20 -13.53080300109127 11.12892671026833
  endloop
endfacet
facet normal 1 0 0
  outer loop
    vertex 20 -8.718219730393436 6.350790337918735
    vertex 20 -13.53080300109127 11.12892671026833
    vertex 20 -14.50961894323342 5.490381056766578
  endloop
endfacet
facet normal 1 0 0
  outer loop
    vertex 20 -5.143269916769629 12.79688642579046
    vertex 20 -12.36647494365669 18.46224064359837
    vertex 20 -13.53080300109127 11.12892671026833
  endloop
endfacet
facet normal 1 -0 0
  outer loop
    vertex 20 -12.36647494365669 18.46224064359837
    vertex 20 -5.143269916769629 12.79688642579046
    vertex 20 -4.922029486607379 19.28242662197521
  endloop
endfacet
facet normal 1 0 0
  outer loop
    vertex 20 -8.41897674521072 24.28799924267647
    vertex 20 -12.36647494365669 18.46224064359837
    vertex 20 -4.922029486607379 19.28242662197521
  endloop
endfacet
facet normal 1 0 -0
  outer loop
    vertex 20 -12.36647494365669 18.46224064359837
    vertex 20 -8.41897674521072 24.28799924267647
    vertex 20 -14.61495565361917 24.89563968182024
  endloop
endfacet
facet normal 1 0 0
  outer loop
    vertex 20 25.0153506147701 12.52768693128747
    vertex 20 28.71821973039339 6.35079033791874
    vertex 20 33.1040706886364 11.93261137953079
  endloop
endfacet
facet normal 1 0 0
  outer loop
    vertex 20 33.1040706886364 11.93261137953079
    vertex 20 28.71821973039339 6.35079033791874
    vertex 20 34.50961894323339 5.490381056766598
  endloop
endfacet
facet normal 1 -0 0
  outer loop
    vertex 20 16.91060431471747 13.02635147043403
    vertex 20 25.0153506147701 12.52768693128747
    vertex 20 21.28053250922203 19.42413031612844
  endloop
endfacet
facet normal 1 0 0
  outer loop
    vertex 20 21.28053250922203 19.42413031612844
    vertex 20 25.0153506147701 12.52768693128747
    vertex 20 27.91022681911902 17.93163672227409
  endloop
endfacet
facet normal 1 -0 0
  outer loop
    vertex 20 25.0153506147701 12.52768693128747
    vertex 20 33.1040706886364 11.93261137953079
    vertex 20 27.91022681911902 17.93163672227409
  endloop
endfacet
facet normal 1 0 -0
  outer loop
    vertex 20 16.91060431471747 13.02635147043403
    vertex 20 21.28053250922203 19.42413031612844
    vertex 20 15.63293402346881 18.24301150471342
  endloop
endfacet
facet normal 1 0 -0
  outer loop
    vertex 20 13.65176738578622 6.183402220444851
    vertex 20 16.91060431471747 13.02635147043403
    vertex 20 8.715454409507974 11.859790893311
  endloop
endfacet
facet normal 1 0 0
  outer loop
    vertex 20 16.91060431471747 13.02635147043403
    vertex 20 10.48035475654415 17.36050140190192
    vertex 20 8.715454409507974 11.859790893311
  endloop
endfacet
facet normal 1 -0 0
  outer loop
    vertex 20 10.48035475654415 17.36050140190192
    vertex 20 16.91060431471747 13.02635147043403
    vertex 20 15.63293402346881 18.24301150471342
  endloop
endfacet
facet normal 1 0 -0
  outer loop
    vertex 20 21.28053250922203 19.42413031612844
    vertex 20 28.24969587051021 23.88886857332375
    vertex 20 21.25000000000001 25.41150973291479
  endloop
endfacet
facet normal 1 0 0
  outer loop
    vertex 20 28.24969587051021 23.88886857332375
    vertex 20 21.28053250922203 19.42413031612844
    vertex 20 27.91022681911902 17.93163672227409
  endloop
endfacet
facet normal 1 0 0
  outer loop
    vertex 20 -5.143269916769629 12.79688642579046
    vertex 20 -1.24470328839892 6.153340453089513
    vertex 20 2.215496240867886 10.86296544876154
  endloop
endfacet
facet normal 1 0 0
  outer loop
    vertex 20 2.500000000000036 17.00961894323343
    vertex 20 -5.143269916769629 12.79688642579046
    vertex 20 2.215496240867886 10.86296544876154
  endloop
endfacet
facet normal 1 0 0
  outer loop
    vertex 20 -5.143269916769629 12.79688642579046
    vertex 20 2.500000000000036 17.00961894323343
    vertex 20 -4.922029486607379 19.28242662197521
  endloop
endfacet
facet normal 1 0 0
  outer loop
    vertex 20 6.25000000000003 23.50480947161672
    vertex 20 2.500000000000036 17.00961894323343
    vertex 20 10.48035475654415 17.36050140190192
  endloop
endfacet
facet normal 1 0 0
  outer loop
    vertex 20 10.48035475654415 17.36050140190192
    vertex 20 2.500000000000036 17.00961894323343
    vertex 20 8.715454409507974 11.859790893311
  endloop
endfacet
facet normal 1 0 0
  outer loop
    vertex 20 8.715454409507974 11.859790893311
    vertex 20 2.500000000000036 17.00961894323343
    vertex 20 2.215496240867886 10.86296544876154
  endloop
endfacet
facet normal -0 -1 0
  outer loop
    vertex -13.33333333333334 -20 30
    vertex -20 -20 30
    vertex -15.23993133188814 -20 24.98179081353019
  endloop
endfacet
facet normal 0 -1 0
  outer loop
    vertex -20 -20 30
    vertex -20 -20 22.49999999999998
    vertex -15.23993133188814 -20 24.98179081353019
  endloop
endfacet
facet normal -0 -1 0
  outer loop
    vertex 20 -20 30
    vertex 13.33333333333332 -20 30
    vertex 12.48602251584053 -20 24.36077816711913
  endloop
endfacet
facet normal 0 -1 0
  outer loop
    vertex 20 -20 22.49999999999998
    vertex 20 -20 30
    vertex 12.48602251584053 -20 24.36077816711913
  endloop
endfacet
facet normal 0 -1 0
  outer loop
    vertex 13.33333333333334 -20 0
    vertex 20 -20 0
    vertex 15.23993133188813 -20 5.018209186469814
  endloop
endfacet
facet normal 0 -1 0
  outer loop
    vertex 20 -20 0
    vertex 20 -20 7.499999999999993
    vertex 15.23993133188813 -20 5.018209186469814
  endloop
endfacet
facet normal 0 -1 0
  outer loop
    vertex -20 -20 0
    vertex -13.33333333333332 -20 0
    vertex -12.48187662943436 -20 5.639285025822252
  endloop
endfacet
facet normal 0 -1 0
  outer loop
    vertex -20 -20 7.499999999999993
    vertex -20 -20 0
    vertex -12.48187662943436 -20 5.639285025822252
  endloop
endfacet
facet normal -0 -1 0
  outer loop
    vertex -6.666666666666702 -20 30
    vertex -13.33333333333334 -20 30
    vertex -9.423866718307064 -20 23.55036076830191
  endloop
endfacet
facet normal 0 -1 0
  outer loop
    vertex -9.423866718307064 -20 23.55036076830191
    vertex -13.33333333333334 -20 30
    vertex -15.23993133188814 -20 24.98179081353019
  endloop
endfacet
facet normal -0 -1 0
  outer loop
    vertex -3.469446951953614e-14 -20 30
    vertex -6.666666666666702 -20 30
    vertex -2.797325364009677 -20 24.42680822895071
  endloop
endfacet
facet normal -0 -1 0
  outer loop
    vertex -2.797325364009677 -20 24.42680822895071
    vertex -6.666666666666702 -20 30
    vertex -9.423866718307064 -20 23.55036076830191
  endloop
endfacet
facet normal -0 -1 0
  outer loop
    vertex 6.666666666666645 -20 30
    vertex -3.469446951953614e-14 -20 30
    vertex 2.588882528525898 -20 24.95114234258141
  endloop
endfacet
facet normal 0 -1 -0
  outer loop
    vertex -3.469446951953614e-14 -20 30
    vertex -2.797325364009677 -20 24.42680822895071
    vertex 2.588882528525898 -20 24.95114234258141
  endloop
endfacet
facet normal -0 -1 0
  outer loop
    vertex 13.33333333333332 -20 30
    vertex 6.666666666666645 -20 30
    vertex 12.48602251584053 -20 24.36077816711913
  endloop
endfacet
facet normal 0 -1 0
  outer loop
    vertex 7.267350905393294 -20 22.06203391770975
    vertex 6.666666666666645 -20 30
    vertex 2.588882528525898 -20 24.95114234258141
  endloop
endfacet
facet normal 0 -1 0
  outer loop
    vertex 6.666666666666645 -20 30
    vertex 7.267350905393294 -20 22.06203391770975
    vertex 12.48602251584053 -20 24.36077816711913
  endloop
endfacet
facet normal 0 -1 0
  outer loop
    vertex 6.666666666666702 -20 0
    vertex 13.33333333333334 -20 0
    vertex 9.432416287036807 -20 6.446309493426551
  endloop
endfacet
facet normal 0 -1 0
  outer loop
    vertex 9.432416287036807 -20 6.446309493426551
    vertex 13.33333333333334 -20 0
    vertex 15.23993133188813 -20 5.018209186469814
  endloop
endfacet
facet normal 0 -1 0
  outer loop
    vertex 3.469446951953614e-14 -20 0
    vertex 6.666666666666702 -20 0
    vertex 2.816700068889733 -20 5.568814229541793
  endloop
endfacet
facet normal 0 -1 0
  outer loop
    vertex 2.816700068889733 -20 5.568814229541793
    vertex 6.666666666666702 -20 0
    vertex 9.432416287036807 -20 6.446309493426551
  endloop
endfacet
facet normal 0 -1 0
  outer loop
    vertex -6.666666666666645 -20 0
    vertex 3.469446951953614e-14 -20 0
    vertex -2.458604922038693 -20 5.062385726226452
  endloop
endfacet
facet normal 0 -1 0
  outer loop
    vertex 3.469446951953614e-14 -20 0
    vertex 2.816700068889733 -20 5.568814229541793
    vertex -2.458604922038693 -20 5.062385726226452
  endloop
endfacet
facet normal 0 -1 0
  outer loop
    vertex -13.33333333333332 -20 0
    vertex -6.666666666666645 -20 0
    vertex -12.48187662943436 -20 5.639285025822252
  endloop
endfacet
facet normal 0 -1 0
  outer loop
    vertex -7.249759126594645 -20 7.908967945869859
    vertex -6.666666666666645 -20 0
    vertex -2.458604922038693 -20 5.062385726226452
  endloop
endfacet
facet normal 0 -1 0
  outer loop
    vertex -6.666666666666645 -20 0
    vertex -7.249759126594645 -20 7.908967945869859
    vertex -12.48187662943436 -20 5.639285025822252
  endloop
endfacet
facet normal 0 -1 0
  outer loop
    vertex 20 -20 14.99999999999999
    vertex 20 -20 22.49999999999998
    vertex 13.43025411882658 -20 18.36213534747147
  endloop
endfacet
facet normal 0 -1 0
  outer loop
    vertex 13.43025411882658 -20 18.36213534747147
    vertex 20 -20 22.49999999999998
    vertex 12.48602251584053 -20 24.36077816711913
  endloop
endfacet
facet normal 0 -1 0
  outer loop
    vertex 20 -20 7.499999999999993
    vertex 20 -20 14.99999999999999
    vertex 14.31869996859701 -20 11.10114879922531
  endloop
endfacet
facet normal -0 -1 0
  outer loop
    vertex 20 -20 14.99999999999999
    vertex 13.43025411882658 -20 18.36213534747147
    vertex 14.31869996859701 -20 11.10114879922531
  endloop
endfacet
facet normal -0 -1 0
  outer loop
    vertex 20 -20 7.499999999999993
    vertex 14.31869996859701 -20 11.10114879922531
    vertex 15.23993133188813 -20 5.018209186469814
  endloop
endfacet
facet normal 0 -1 0
  outer loop
    vertex -20 -20 22.49999999999998
    vertex -20 -20 14.99999999999999
    vertex -14.31809614456354 -20 18.8980474523447
  endloop
endfacet
facet normal 0 -1 0
  outer loop
    vertex -20 -20 22.49999999999998
    vertex -14.31809614456354 -20 18.8980474523447
    vertex -15.23993133188814 -20 24.98179081353019
  endloop
endfacet
facet normal 0 -1 0
  outer loop
    vertex -20 -20 14.99999999999999
    vertex -20 -20 7.499999999999993
    vertex -13.42663117462577 -20 11.63304216194868
  endloop
endfacet
facet normal 0 -1 0
  outer loop
    vertex -20 -20 14.99999999999999
    vertex -13.42663117462577 -20 11.63304216194868
    vertex -14.31809614456354 -20 18.8980474523447
  endloop
endfacet
facet normal 0 -1 -0
  outer loop
    vertex -13.42663117462577 -20 11.63304216194868
    vertex -20 -20 7.499999999999993
    vertex -12.48187662943436 -20 5.639285025822252
  endloop
endfacet
facet normal 0 -1 0
  outer loop
    vertex -2.797325364009677 -20 24.42680822895071
    vertex 1.80772043457926 -20 18.26686956624661
    vertex 2.588882528525898 -20 24.95114234258141
  endloop
endfacet
facet normal 0 -1 0
  outer loop
    vertex 1.80772043457926 -20 18.26686956624661
    vertex -2.797325364009677 -20 24.42680822895071
    vertex -3.876345983247487 -20 18.98533335887283
  endloop
endfacet
facet normal 0 -1 0
  outer loop
    vertex -2.797325364009677 -20 24.42680822895071
    vertex -9.423866718307064 -20 23.55036076830191
    vertex -3.876345983247487 -20 18.98533335887283
  endloop
endfacet
facet normal -0 -1 0
  outer loop
    vertex 2.816700068889733 -20 5.568814229541793
    vertex -1.521180714174521 -20 11.61126455370026
    vertex -2.458604922038693 -20 5.062385726226452
  endloop
endfacet
facet normal 0 -1 0
  outer loop
    vertex -1.521180714174521 -20 11.61126455370026
    vertex 2.816700068889733 -20 5.568814229541793
    vertex 3.919491653446192 -20 10.99600825056878
  endloop
endfacet
facet normal 0 -1 0
  outer loop
    vertex 2.816700068889733 -20 5.568814229541793
    vertex 9.432416287036807 -20 6.446309493426551
    vertex 3.919491653446192 -20 10.99600825056878
  endloop
endfacet
facet normal 0 -1 0
  outer loop
    vertex 14.31869996859701 -20 11.10114879922531
    vertex 13.43025411882658 -20 18.36213534747147
    vertex 8.370573476016023 -20 14.4553174378248
  endloop
endfacet
facet normal 0 -1 0
  outer loop
    vertex 8.370573476016023 -20 14.4553174378248
    vertex 13.43025411882658 -20 18.36213534747147
    vertex 7.267350905393294 -20 22.06203391770975
  endloop
endfacet
facet normal 0 -1 0
  outer loop
    vertex 7.267350905393294 -20 22.06203391770975
    vertex 13.43025411882658 -20 18.36213534747147
    vertex 12.48602251584053 -20 24.36077816711913
  endloop
endfacet
facet normal 0 -1 0
  outer loop
    vertex -14.31809614456354 -20 18.8980474523447
    vertex -13.42663117462577 -20 11.63304216194868
    vertex -8.349911901576739 -20 15.53589080761003
  endloop
endfacet
facet normal 0 -1 -0
  outer loop
    vertex -8.349911901576739 -20 15.53589080761003
    vertex -13.42663117462577 -20 11.63304216194868
    vertex -7.249759126594645 -20 7.908967945869859
  endloop
endfacet
facet normal -0 -1 0
  outer loop
    vertex -7.249759126594645 -20 7.908967945869859
    vertex -13.42663117462577 -20 11.63304216194868
    vertex -12.48187662943436 -20 5.639285025822252
  endloop
endfacet
facet normal -0 -1 0
  outer loop
    vertex 14.31869996859701 -20 11.10114879922531
    vertex 8.370573476016023 -20 14.4553174378248
    vertex 9.432416287036807 -20 6.446309493426551
  endloop
endfacet
facet normal 0 -1 -0
  outer loop
    vertex 14.31869996859701 -20 11.10114879922531
    vertex 9.432416287036807 -20 6.446309493426551
    vertex 15.23993133188813 -20 5.018209186469814
  endloop
endfacet
facet normal 0 -1 0
  outer loop
    vertex 8.370573476016023 -20 14.4553174378248
    vertex 7.267350905393294 -20 22.06203391770975
    vertex 1.80772043457926 -20 18.26686956624661
  endloop
endfacet
facet normal -0 -1 0
  outer loop
    vertex 8.370573476016023 -20 14.4553174378248
    vertex 1.80772043457926 -20 18.26686956624661
    vertex 3.919491653446192 -20 10.99600825056878
  endloop
endfacet
facet normal 0 -1 0
  outer loop
    vertex 9.432416287036807 -20 6.446309493426551
    vertex 8.370573476016023 -20 14.4553174378248
    vertex 3.919491653446192 -20 10.99600825056878
  endloop
endfacet
facet normal 0 -1 0
  outer loop
    vertex 1.80772043457926 -20 18.26686956624661
    vertex 7.267350905393294 -20 22.06203391770975
    vertex 2.588882528525898 -20 24.95114234258141
  endloop
endfacet
facet normal 0 -1 0
  outer loop
    vertex -1.521180714174521 -20 11.61126455370026
    vertex 1.80772043457926 -20 18.26686956624661
    vertex -3.876345983247487 -20 18.98533335887283
  endloop
endfacet
facet normal 0 -1 -0
  outer loop
    vertex 1.80772043457926 -20 18.26686956624661
    vertex -1.521180714174521 -20 11.61126455370026
    vertex 3.919491653446192 -20 10.99600825056878
  endloop
endfacet
facet normal 0 -1 0
  outer loop
    vertex -14.31809614456354 -20 18.8980474523447
    vertex -8.349911901576739 -20 15.53589080761003
    vertex -9.423866718307064 -20 23.55036076830191
  endloop
endfacet
facet normal 0 -1 0
  outer loop
    vertex -14.31809614456354 -20 18.8980474523447
    vertex -9.423866718307064 -20 23.55036076830191
    vertex -15.23993133188814 -20 24.98179081353019
  endloop
endfacet
facet normal 0 -1 0
  outer loop
    vertex -8.349911901576739 -20 15.53589080761003
    vertex -7.249759126594645 -20 7.908967945869859
    vertex -1.521180714174521 -20 11.61126455370026
  endloop
endfacet
facet normal 0 -1 0
  outer loop
    vertex -8.349911901576739 -20 15.53589080761003
    vertex -1.521180714174521 -20 11.61126455370026
    vertex -3.876345983247487 -20 18.98533335887283
  endloop
endfacet
facet normal 0 -1 0
  outer loop
    vertex -9.423866718307064 -20 23.55036076830191
    vertex -8.349911901576739 -20 15.53589080761003
    vertex -3.876345983247487 -20 18.98533335887283
  endloop
endfacet
facet normal 0 -1 0
  outer loop
    vertex -1.521180714174521 -20 11.61126455370026
    vertex -7.249759126594645 -20 7.908967945869859
    vertex -2.458604922038693 -20 5.062385726226452
  endloop
endfacet
facet normal -1 0 0
  outer loop
    vertex -20 32.49999999999998 30
    vertex -20 40 30
    vertex -20 34.50961894323341 24.50961894323341
  endloop
endfacet
facet normal -1 0 -0
  outer loop
    vertex -20 40 30
    vertex -20 40 22.49999999999998
    vertex -20 34.50961894323341 24.50961894323341
  endloop
endfacet
facet normal -1 0 0
  outer loop
    vertex -20 -20 30
    vertex -20 -12.50000000000001 30
    vertex -20 -14.65846112410349 24.70210327765511
  endloop
endfacet
facet normal -1 0 0
  outer loop
    vertex -20 -20 22.49999999999998
    vertex -20 -20 30
    vertex -20 -14.65846112410349 24.70210327765511
  endloop
endfacet
facet normal -1 0 0
  outer loop
    vertex -20 40 0
    vertex -20 32.50000000000001 0
    vertex -20 34.50961894323342 5.490381056766578
  endloop
endfacet
facet normal -1 0 -0
  outer loop
    vertex -20 40 7.499999999999993
    vertex -20 40 0
    vertex -20 34.50961894323342 5.490381056766578
  endloop
endfacet
facet normal -1 0 0
  outer loop
    vertex -20 -12.49999999999998 0
    vertex -20 -20 0
    vertex -20 -14.5096189432334 5.490381056766598
  endloop
endfacet
facet normal -1 0 0
  outer loop
    vertex -20 -20 0
    vertex -20 -20 7.499999999999993
    vertex -20 -14.5096189432334 5.490381056766598
  endloop
endfacet
facet normal -1 0 0
  outer loop
    vertex -20 24.99999999999996 30
    vertex -20 32.49999999999998 30
    vertex -20 28.47622237611372 23.94675889114501
  endloop
endfacet
facet normal -1 0 0
  outer loop
    vertex -20 28.47622237611372 23.94675889114501
    vertex -20 32.49999999999998 30
    vertex -20 34.50961894323341 24.50961894323341
  endloop
endfacet
facet normal -1 0 0
  outer loop
    vertex -20 17.49999999999996 30
    vertex -20 24.99999999999996 30
    vertex -20 21.18870236790415 23.54019967600792
  endloop
endfacet
facet normal -1 0 0
  outer loop
    vertex -20 21.18870236790415 23.54019967600792
    vertex -20 24.99999999999996 30
    vertex -20 28.47622237611372 23.94675889114501
  endloop
endfacet
facet normal -1 0 0
  outer loop
    vertex -20 9.999999999999972 30
    vertex -20 17.49999999999996 30
    vertex -20 13.60981773585397 23.4884716859438
  endloop
endfacet
facet normal -1 0 -0
  outer loop
    vertex -20 17.49999999999996 30
    vertex -20 21.18870236790415 23.54019967600792
    vertex -20 13.60981773585397 23.4884716859438
  endloop
endfacet
facet normal -1 0 0
  outer loop
    vertex -20 2.49999999999998 30
    vertex -20 9.999999999999972 30
    vertex -20 5.470204047219795 23.37139255318801
  endloop
endfacet
facet normal -1 0 0
  outer loop
    vertex -20 5.470204047219795 23.37139255318801
    vertex -20 9.999999999999972 30
    vertex -20 13.60981773585397 23.4884716859438
  endloop
endfacet
facet normal -1 0 0
  outer loop
    vertex -20 -5.000000000000014 30
    vertex -20 2.49999999999998 30
    vertex -20 -1.250000000000016 25.41150973291479
  endloop
endfacet
facet normal -1 0 -0
  outer loop
    vertex -20 2.49999999999998 30
    vertex -20 5.470204047219795 23.37139255318801
    vertex -20 -1.250000000000016 25.41150973291479
  endloop
endfacet
facet normal -1 0 0
  outer loop
    vertex -20 -12.50000000000001 30
    vertex -20 -5.000000000000014 30
    vertex -20 -8.252552257089224 23.88824830089837
  endloop
endfacet
facet normal -1 0 0
  outer loop
    vertex -20 -8.252552257089224 23.88824830089837
    vertex -20 -5.000000000000014 30
    vertex -20 -1.250000000000016 25.41150973291479
  endloop
endfacet
facet normal -1 0 -0
  outer loop
    vertex -20 -12.50000000000001 30
    vertex -20 -8.252552257089224 23.88824830089837
    vertex -20 -14.65846112410349 24.70210327765511
  endloop
endfacet
facet normal -1 0 0
  outer loop
    vertex -20 -4.999999999999961 0
    vertex -20 -12.49999999999998 0
    vertex -20 -8.718219730393386 6.350790337918736
  endloop
endfacet
facet normal -1 0 0
  outer loop
    vertex -20 -8.718219730393386 6.350790337918736
    vertex -20 -12.49999999999998 0
    vertex -20 -14.5096189432334 5.490381056766598
  endloop
endfacet
facet normal -1 0 0
  outer loop
    vertex -20 2.500000000000035 0
    vertex -20 -4.999999999999961 0
    vertex -20 -1.249999999999961 6.495190528383285
  endloop
endfacet
facet normal -1 0 0
  outer loop
    vertex -20 -1.249999999999961 6.495190528383285
    vertex -20 -4.999999999999961 0
    vertex -20 -8.718219730393386 6.350790337918736
  endloop
endfacet
facet normal -1 0 0
  outer loop
    vertex -20 10.00000000000003 0
    vertex -20 2.500000000000035 0
    vertex -20 5.882535509926784 6.277505277219234
  endloop
endfacet
facet normal -1 0 0
  outer loop
    vertex -20 2.500000000000035 0
    vertex -20 -1.249999999999961 6.495190528383285
    vertex -20 5.882535509926784 6.277505277219234
  endloop
endfacet
facet normal -1 0 0
  outer loop
    vertex -20 17.50000000000002 0
    vertex -20 10.00000000000003 0
    vertex -20 13.75000000000002 6.495190528383283
  endloop
endfacet
facet normal -1 0 0
  outer loop
    vertex -20 13.75000000000002 6.495190528383283
    vertex -20 10.00000000000003 0
    vertex -20 5.882535509926784 6.277505277219234
  endloop
endfacet
facet normal -1 0 0
  outer loop
    vertex -20 25.00000000000001 0
    vertex -20 17.50000000000002 0
    vertex -20 21.25000000000001 4.588490267085215
  endloop
endfacet
facet normal -1 0 0
  outer loop
    vertex -20 17.50000000000002 0
    vertex -20 13.75000000000002 6.495190528383283
    vertex -20 21.25000000000001 4.588490267085215
  endloop
endfacet
facet normal -1 0 0
  outer loop
    vertex -20 32.50000000000001 0
    vertex -20 25.00000000000001 0
    vertex -20 28.03652117960138 6.339289181375884
  endloop
endfacet
facet normal -1 0 0
  outer loop
    vertex -20 28.03652117960138 6.339289181375884
    vertex -20 25.00000000000001 0
    vertex -20 21.25000000000001 4.588490267085215
  endloop
endfacet
facet normal -1 0 0
  outer loop
    vertex -20 32.50000000000001 0
    vertex -20 28.03652117960138 6.339289181375884
    vertex -20 34.50961894323342 5.490381056766578
  endloop
endfacet
facet normal -1 0 0
  outer loop
    vertex -20 -20 14.99999999999999
    vertex -20 -20 22.49999999999998
    vertex -20 -14.11194824567741 19.31453068728778
  endloop
endfacet
facet normal -1 0 0
  outer loop
    vertex -20 -14.11194824567741 19.31453068728778
    vertex -20 -20 22.49999999999998
    vertex -20 -14.65846112410349 24.70210327765511
  endloop
endfacet
facet normal -1 0 0
  outer loop
    vertex -20 -20 7.499999999999993
    vertex -20 -20 14.99999999999999
    vertex -20 -13.1040706886364 11.93261137953079
  endloop
endfacet
facet normal -1 0 0
  outer loop
    vertex -20 -20 14.99999999999999
    vertex -20 -14.11194824567741 19.31453068728778
    vertex -20 -13.1040706886364 11.93261137953079
  endloop
endfacet
facet normal -1 0 0
  outer loop
    vertex -20 -20 7.499999999999993
    vertex -20 -13.1040706886364 11.93261137953079
    vertex -20 -14.5096189432334 5.490381056766598
  endloop
endfacet
facet normal -1 0 -0
  outer loop
    vertex -20 40 22.49999999999998
    vertex -20 40 14.99999999999999
    vertex -20 32.80540892351924 18.07401615933714
  endloop
endfacet
facet normal -1 -0 0
  outer loop
    vertex -20 40 22.49999999999998
    vertex -20 32.80540892351924 18.07401615933714
    vertex -20 34.50961894323341 24.50961894323341
  endloop
endfacet
facet normal -1 0 -0
  outer loop
    vertex -20 40 14.99999999999999
    vertex -20 40 7.499999999999993
    vertex -20 33.80877684376181 11.18078837594094
  endloop
endfacet
facet normal -1 0 0
  outer loop
    vertex -20 32.80540892351924 18.07401615933714
    vertex -20 40 14.99999999999999
    vertex -20 33.80877684376181 11.18078837594094
  endloop
endfacet
facet normal -1 0 0
  outer loop
    vertex -20 33.80877684376181 11.18078837594094
    vertex -20 40 7.499999999999993
    vertex -20 34.50961894323342 5.490381056766578
  endloop
endfacet
facet normal -1 0 0
  outer loop
    vertex -20 13.60981773585397 23.4884716859438
    vertex -20 21.18870236790415 23.54019967600792
    vertex -20 17.466420017293 17.33057772323616
  endloop
endfacet
facet normal -1 0 0
  outer loop
    vertex -20 17.466420017293 17.33057772323616
    vertex -20 21.18870236790415 23.54019967600792
    vertex -20 24.85360402202562 17.55671856829161
  endloop
endfacet
facet normal -1 0 0
  outer loop
    vertex -20 24.85360402202562 17.55671856829161
    vertex -20 21.18870236790415 23.54019967600792
    vertex -20 28.47622237611372 23.94675889114501
  endloop
endfacet
facet normal -1 -0 0
  outer loop
    vertex -20 5.470204047219795 23.37139255318801
    vertex -20 -1.308525097696455 19.41805164635974
    vertex -20 -1.250000000000016 25.41150973291479
  endloop
endfacet
facet normal -1 0 0
  outer loop
    vertex -20 -1.308525097696455 19.41805164635974
    vertex -20 5.470204047219795 23.37139255318801
    vertex -20 4.702931536791202 17.77216665365123
  endloop
endfacet
facet normal -1 0 0
  outer loop
    vertex -20 5.470204047219795 23.37139255318801
    vertex -20 13.60981773585397 23.4884716859438
    vertex -20 10.46607363339446 17.76859510641936
  endloop
endfacet
facet normal -1 0 -0
  outer loop
    vertex -20 5.470204047219795 23.37139255318801
    vertex -20 10.46607363339446 17.76859510641936
    vertex -20 4.702931536791202 17.77216665365123
  endloop
endfacet
facet normal -1 -0 0
  outer loop
    vertex -20 21.01934626213319 10.9850476689821
    vertex -20 13.75000000000002 6.495190528383283
    vertex -20 14.022915940326 12.74763289141658
  endloop
endfacet
facet normal -1 0 0
  outer loop
    vertex -20 13.75000000000002 6.495190528383283
    vertex -20 21.01934626213319 10.9850476689821
    vertex -20 21.25000000000001 4.588490267085215
  endloop
endfacet
facet normal -1 -0 0
  outer loop
    vertex -20 13.75000000000002 6.495190528383283
    vertex -20 5.882535509926784 6.277505277219234
    vertex -20 8.248509424033603 12.07140540136807
  endloop
endfacet
facet normal -1 0 0
  outer loop
    vertex -20 14.022915940326 12.74763289141658
    vertex -20 13.75000000000002 6.495190528383283
    vertex -20 8.248509424033603 12.07140540136807
  endloop
endfacet
facet normal -1 -0 0
  outer loop
    vertex -20 -1.249999999999961 6.495190528383285
    vertex -20 -8.718219730393386 6.350790337918736
    vertex -20 -5.015350614770103 12.52768693128747
  endloop
endfacet
facet normal -1 0 0
  outer loop
    vertex -20 -1.249999999999961 6.495190528383285
    vertex -20 -5.015350614770103 12.52768693128747
    vertex -20 2.336641390099207 12.86288874595009
  endloop
endfacet
facet normal -1 0 0
  outer loop
    vertex -20 -1.249999999999961 6.495190528383285
    vertex -20 2.336641390099207 12.86288874595009
    vertex -20 5.882535509926784 6.277505277219234
  endloop
endfacet
facet normal -1 0 0
  outer loop
    vertex -20 -13.1040706886364 11.93261137953079
    vertex -20 -14.11194824567741 19.31453068728778
    vertex -20 -8.358489380773918 17.41622578907283
  endloop
endfacet
facet normal -1 0 0
  outer loop
    vertex -20 -14.11194824567741 19.31453068728778
    vertex -20 -8.252552257089224 23.88824830089837
    vertex -20 -8.358489380773918 17.41622578907283
  endloop
endfacet
facet normal -1 -0 0
  outer loop
    vertex -20 -8.252552257089224 23.88824830089837
    vertex -20 -14.11194824567741 19.31453068728778
    vertex -20 -14.65846112410349 24.70210327765511
  endloop
endfacet
facet normal -1 0 0
  outer loop
    vertex -20 21.01934626213319 10.9850476689821
    vertex -20 28.03652117960138 6.339289181375884
    vertex -20 21.25000000000001 4.588490267085215
  endloop
endfacet
facet normal -1 0 0
  outer loop
    vertex -20 28.03652117960138 6.339289181375884
    vertex -20 21.01934626213319 10.9850476689821
    vertex -20 28.06757903958167 12.50232305081922
  endloop
endfacet
facet normal -1 0 0
  outer loop
    vertex -20 28.03652117960138 6.339289181375884
    vertex -20 33.80877684376181 11.18078837594094
    vertex -20 34.50961894323342 5.490381056766578
  endloop
endfacet
facet normal -1 -0 0
  outer loop
    vertex -20 33.80877684376181 11.18078837594094
    vertex -20 28.03652117960138 6.339289181375884
    vertex -20 28.06757903958167 12.50232305081922
  endloop
endfacet
facet normal -1 -0 0
  outer loop
    vertex -20 32.80540892351924 18.07401615933714
    vertex -20 24.85360402202562 17.55671856829161
    vertex -20 28.47622237611372 23.94675889114501
  endloop
endfacet
facet normal -1 0 0
  outer loop
    vertex -20 24.85360402202562 17.55671856829161
    vertex -20 32.80540892351924 18.07401615933714
    vertex -20 28.06757903958167 12.50232305081922
  endloop
endfacet
facet normal -1 0 0
  outer loop
    vertex -20 32.80540892351924 18.07401615933714
    vertex -20 28.47622237611372 23.94675889114501
    vertex -20 34.50961894323341 24.50961894323341
  endloop
endfacet
facet normal -1 0 -0
  outer loop
    vertex -20 32.80540892351924 18.07401615933714
    vertex -20 33.80877684376181 11.18078837594094
    vertex -20 28.06757903958167 12.50232305081922
  endloop
endfacet
facet normal -1 0 0
  outer loop
    vertex -20 -5.015350614770103 12.52768693128747
    vertex -20 -8.718219730393386 6.350790337918736
    vertex -20 -13.1040706886364 11.93261137953079
  endloop
endfacet
facet normal -1 0 -0
  outer loop
    vertex -20 -13.1040706886364 11.93261137953079
    vertex -20 -8.718219730393386 6.350790337918736
    vertex -20 -14.5096189432334 5.490381056766598
  endloop
endfacet
facet normal -1 -0 0
  outer loop
    vertex -20 2.336641390099207 12.86288874595009
    vertex -20 -5.015350614770103 12.52768693128747
    vertex -20 -1.308525097696455 19.41805164635974
  endloop
endfacet
facet normal -1 0 0
  outer loop
    vertex -20 -1.308525097696455 19.41805164635974
    vertex -20 -5.015350614770103 12.52768693128747
    vertex -20 -8.358489380773918 17.41622578907283
  endloop
endfacet
facet normal -1 -0 0
  outer loop
    vertex -20 -5.015350614770103 12.52768693128747
    vertex -20 -13.1040706886364 11.93261137953079
    vertex -20 -8.358489380773918 17.41622578907283
  endloop
endfacet
facet normal -1 0 0
  outer loop
    vertex -20 2.336641390099207 12.86288874595009
    vertex -20 -1.308525097696455 19.41805164635974
    vertex -20 4.702931536791202 17.77216665365123
  endloop
endfacet
facet normal -1 0 0
  outer loop
    vertex -20 5.882535509926784 6.277505277219234
    vertex -20 2.336641390099207 12.86288874595009
    vertex -20 8.248509424033603 12.07140540136807
  endloop
endfacet
facet normal -1 0 0
  outer loop
    vertex -20 2.336641390099207 12.86288874595009
    vertex -20 4.702931536791202 17.77216665365123
    vertex -20 8.248509424033603 12.07140540136807
  endloop
endfacet
facet normal -1 0 0
  outer loop
    vertex -20 -1.308525097696455 19.41805164635974
    vertex -20 -8.252552257089224 23.88824830089837
    vertex -20 -1.250000000000016 25.41150973291479
  endloop
endfacet
facet normal -1 0 -0
  outer loop
    vertex -20 -8.252552257089224 23.88824830089837
    vertex -20 -1.308525097696455 19.41805164635974
    vertex -20 -8.358489380773918 17.41622578907283
  endloop
endfacet
facet normal -1 0 -0
  outer loop
    vertex -20 13.60981773585397 23.4884716859438
    vertex -20 17.466420017293 17.33057772323616
    vertex -20 10.46607363339446 17.76859510641936
  endloop
endfacet
facet normal -1 0 0
  outer loop
    vertex -20 17.466420017293 17.33057772323616
    vertex -20 24.85360402202562 17.55671856829161
    vertex -20 21.01934626213319 10.9850476689821
  endloop
endfacet
facet normal -1 0 -0
  outer loop
    vertex -20 17.466420017293 17.33057772323616
    vertex -20 21.01934626213319 10.9850476689821
    vertex -20 14.022915940326 12.74763289141658
  endloop
endfacet
facet normal -1 0 0
  outer loop
    vertex -20 10.46607363339446 17.76859510641936
    vertex -20 17.466420017293 17.33057772323616
    vertex -20 14.022915940326 12.74763289141658
  endloop
endfacet
facet normal -1 0 0
  outer loop
    vertex -20 21.01934626213319 10.9850476689821
    vertex -20 24.85360402202562 17.55671856829161
    vertex -20 28.06757903958167 12.50232305081922
  endloop
endfacet
facet normal -1 0 -0
  outer loop
    vertex -20 10.46607363339446 17.76859510641936
    vertex -20 14.022915940326 12.74763289141658
    vertex -20 8.248509424033603 12.07140540136807
  endloop
endfacet
facet normal -1 0 0
  outer loop
    vertex -20 4.702931536791202 17.77216665365123
    vertex -20 10.46607363339446 17.76859510641936
    vertex -20 8.248509424033603 12.07140540136807
  endloop
endfacet
facet normal -0 1 0
  outer loop
    vertex 13.33333333333334 40 30
    vertex 20 40 30
    vertex 15.23993133188814 40 24.98179081353019
  endloop
endfacet
facet normal 0 1 0
  outer loop
    vertex 20 40 30
    vertex 20 40 22.49999999999998
    vertex 15.23993133188814 40 24.98179081353019
  endloop
endfacet
facet normal -0 1 0
  outer loop
    vertex -20 40 30
    vertex -13.33333333333332 40 30
    vertex -12.48187662943437 40 24.36071497417773
  endloop
endfacet
facet normal 0 1 0
  outer loop
    vertex -20 40 22.49999999999998
    vertex -20 40 30
    vertex -12.48187662943437 40 24.36071497417773
  endloop
endfacet
facet normal 0 1 0
  outer loop
    vertex -13.33333333333334 40 0
    vertex -20 40 0
    vertex -15.23993133188813 40 5.018209186469814
  endloop
endfacet
facet normal 0 1 0
  outer loop
    vertex -20 40 0
    vertex -20 40 7.499999999999993
    vertex -15.23993133188813 40 5.018209186469814
  endloop
endfacet
facet normal 0 1 0
  outer loop
    vertex 20 40 0
    vertex 13.33333333333332 40 0
    vertex 12.48602251584052 40 5.639221832880857
  endloop
endfacet
facet normal 0 1 0
  outer loop
    vertex 20 40 7.499999999999993
    vertex 20 40 0
    vertex 12.48602251584052 40 5.639221832880857
  endloop
endfacet
facet normal -0 1 0
  outer loop
    vertex 6.666666666666702 40 30
    vertex 13.33333333333334 40 30
    vertex 9.432416287036812 40 23.55369050657344
  endloop
endfacet
facet normal 0 1 0
  outer loop
    vertex 9.432416287036812 40 23.55369050657344
    vertex 13.33333333333334 40 30
    vertex 15.23993133188814 40 24.98179081353019
  endloop
endfacet
facet normal -0 1 0
  outer loop
    vertex 3.469446951953614e-14 40 30
    vertex 6.666666666666702 40 30
    vertex 2.816700068889733 40 24.4311857704582
  endloop
endfacet
facet normal -0 1 0
  outer loop
    vertex 2.816700068889733 40 24.4311857704582
    vertex 6.666666666666702 40 30
    vertex 9.432416287036812 40 23.55369050657344
  endloop
endfacet
facet normal -0 1 0
  outer loop
    vertex -6.666666666666645 40 30
    vertex 3.469446951953614e-14 40 30
    vertex -2.458604922038695 40 24.93761427377354
  endloop
endfacet
facet normal 0 1 0
  outer loop
    vertex 3.469446951953614e-14 40 30
    vertex 2.816700068889733 40 24.4311857704582
    vertex -2.458604922038695 40 24.93761427377354
  endloop
endfacet
facet normal -0 1 0
  outer loop
    vertex -13.33333333333332 40 30
    vertex -6.666666666666645 40 30
    vertex -12.48187662943437 40 24.36071497417773
  endloop
endfacet
facet normal 0 1 0
  outer loop
    vertex -7.249759126594647 40 22.09103205413011
    vertex -6.666666666666645 40 30
    vertex -2.458604922038695 40 24.93761427377354
  endloop
endfacet
facet normal 0 1 0
  outer loop
    vertex -6.666666666666645 40 30
    vertex -7.249759126594647 40 22.09103205413011
    vertex -12.48187662943437 40 24.36071497417773
  endloop
endfacet
facet normal 0 1 0
  outer loop
    vertex -6.666666666666702 40 0
    vertex -13.33333333333334 40 0
    vertex -9.42386671830706 40 6.449639231698081
  endloop
endfacet
facet normal 0 1 0
  outer loop
    vertex -9.42386671830706 40 6.449639231698081
    vertex -13.33333333333334 40 0
    vertex -15.23993133188813 40 5.018209186469814
  endloop
endfacet
facet normal 0 1 0
  outer loop
    vertex -3.469446951953614e-14 40 0
    vertex -6.666666666666702 40 0
    vertex -2.797325364009677 40 5.573191771049281
  endloop
endfacet
facet normal 0 1 0
  outer loop
    vertex -2.797325364009677 40 5.573191771049281
    vertex -6.666666666666702 40 0
    vertex -9.42386671830706 40 6.449639231698081
  endloop
endfacet
facet normal 0 1 0
  outer loop
    vertex 6.666666666666645 40 0
    vertex -3.469446951953614e-14 40 0
    vertex 2.588882528525897 40 5.048857657418571
  endloop
endfacet
facet normal 0 1 -0
  outer loop
    vertex -3.469446951953614e-14 40 0
    vertex -2.797325364009677 40 5.573191771049281
    vertex 2.588882528525897 40 5.048857657418571
  endloop
endfacet
facet normal 0 1 0
  outer loop
    vertex 13.33333333333332 40 0
    vertex 6.666666666666645 40 0
    vertex 12.48602251584052 40 5.639221832880857
  endloop
endfacet
facet normal 0 1 0
  outer loop
    vertex 7.267350905393291 40 7.937966082290211
    vertex 6.666666666666645 40 0
    vertex 2.588882528525897 40 5.048857657418571
  endloop
endfacet
facet normal 0 1 0
  outer loop
    vertex 6.666666666666645 40 0
    vertex 7.267350905393291 40 7.937966082290211
    vertex 12.48602251584052 40 5.639221832880857
  endloop
endfacet
facet normal 0 1 0
  outer loop
    vertex 20 40 22.49999999999998
    vertex 20 40 14.99999999999999
    vertex 14.31869996859701 40 18.89885120077467
  endloop
endfacet
facet normal 0 1 0
  outer loop
    vertex 20 40 22.49999999999998
    vertex 14.31869996859701 40 18.89885120077467
    vertex 15.23993133188814 40 24.98179081353019
  endloop
endfacet
facet normal 0 1 0
  outer loop
    vertex 20 40 14.99999999999999
    vertex 20 40 7.499999999999993
    vertex 13.43025411882657 40 11.6378646525285
  endloop
endfacet
facet normal 0 1 0
  outer loop
    vertex 20 40 14.99999999999999
    vertex 13.43025411882657 40 11.6378646525285
    vertex 14.31869996859701 40 18.89885120077467
  endloop
endfacet
facet normal 0 1 0
  outer loop
    vertex 13.43025411882657 40 11.6378646525285
    vertex 20 40 7.499999999999993
    vertex 12.48602251584052 40 5.639221832880857
  endloop
endfacet
facet normal 0 1 0
  outer loop
    vertex -20 40 14.99999999999999
    vertex -20 40 22.49999999999998
    vertex -13.42663117462577 40 18.3669578380513
  endloop
endfacet
facet normal 0 1 -0
  outer loop
    vertex -13.42663117462577 40 18.3669578380513
    vertex -20 40 22.49999999999998
    vertex -12.48187662943437 40 24.36071497417773
  endloop
endfacet
facet normal 0 1 0
  outer loop
    vertex -20 40 7.499999999999993
    vertex -20 40 14.99999999999999
    vertex -14.31809614456354 40 11.10195254765528
  endloop
endfacet
facet normal -0 1 0
  outer loop
    vertex -20 40 14.99999999999999
    vertex -13.42663117462577 40 18.3669578380513
    vertex -14.31809614456354 40 11.10195254765528
  endloop
endfacet
facet normal -0 1 0
  outer loop
    vertex -20 40 7.499999999999993
    vertex -14.31809614456354 40 11.10195254765528
    vertex -15.23993133188813 40 5.018209186469814
  endloop
endfacet
facet normal 0 1 0
  outer loop
    vertex 2.816700068889733 40 24.4311857704582
    vertex -1.521180714174524 40 18.38873544629972
    vertex -2.458604922038695 40 24.93761427377354
  endloop
endfacet
facet normal 0 1 0
  outer loop
    vertex -1.521180714174524 40 18.38873544629972
    vertex 2.816700068889733 40 24.4311857704582
    vertex 3.919491653446196 40 19.00399174943121
  endloop
endfacet
facet normal 0 1 0
  outer loop
    vertex 2.816700068889733 40 24.4311857704582
    vertex 9.432416287036812 40 23.55369050657344
    vertex 3.919491653446196 40 19.00399174943121
  endloop
endfacet
facet normal -0 1 0
  outer loop
    vertex -2.797325364009677 40 5.573191771049281
    vertex 1.807720434579259 40 11.73313043375337
    vertex 2.588882528525897 40 5.048857657418571
  endloop
endfacet
facet normal 0 1 0
  outer loop
    vertex 1.807720434579259 40 11.73313043375337
    vertex -2.797325364009677 40 5.573191771049281
    vertex -3.876345983247481 40 11.01466664112717
  endloop
endfacet
facet normal 0 1 0
  outer loop
    vertex -2.797325364009677 40 5.573191771049281
    vertex -9.42386671830706 40 6.449639231698081
    vertex -3.876345983247481 40 11.01466664112717
  endloop
endfacet
facet normal 0 1 0
  outer loop
    vertex -14.31809614456354 40 11.10195254765528
    vertex -13.42663117462577 40 18.3669578380513
    vertex -8.349911901576737 40 14.46410919238995
  endloop
endfacet
facet normal 0 1 -0
  outer loop
    vertex -8.349911901576737 40 14.46410919238995
    vertex -13.42663117462577 40 18.3669578380513
    vertex -7.249759126594647 40 22.09103205413011
  endloop
endfacet
facet normal 0 1 0
  outer loop
    vertex -7.249759126594647 40 22.09103205413011
    vertex -13.42663117462577 40 18.3669578380513
    vertex -12.48187662943437 40 24.36071497417773
  endloop
endfacet
facet normal 0 1 0
  outer loop
    vertex 14.31869996859701 40 18.89885120077467
    vertex 13.43025411882657 40 11.6378646525285
    vertex 8.370573476016023 40 15.54468256217518
  endloop
endfacet
facet normal 0 1 0
  outer loop
    vertex 8.370573476016023 40 15.54468256217518
    vertex 13.43025411882657 40 11.6378646525285
    vertex 7.267350905393291 40 7.937966082290211
  endloop
endfacet
facet normal -0 1 0
  outer loop
    vertex 7.267350905393291 40 7.937966082290211
    vertex 13.43025411882657 40 11.6378646525285
    vertex 12.48602251584052 40 5.639221832880857
  endloop
endfacet
facet normal 0 1 0
  outer loop
    vertex 14.31869996859701 40 18.89885120077467
    vertex 8.370573476016023 40 15.54468256217518
    vertex 9.432416287036812 40 23.55369050657344
  endloop
endfacet
facet normal 0 1 -0
  outer loop
    vertex 14.31869996859701 40 18.89885120077467
    vertex 9.432416287036812 40 23.55369050657344
    vertex 15.23993133188814 40 24.98179081353019
  endloop
endfacet
facet normal 0 1 0
  outer loop
    vertex 8.370573476016023 40 15.54468256217518
    vertex 7.267350905393291 40 7.937966082290211
    vertex 1.807720434579259 40 11.73313043375337
  endloop
endfacet
facet normal 0 1 0
  outer loop
    vertex 8.370573476016023 40 15.54468256217518
    vertex 1.807720434579259 40 11.73313043375337
    vertex 3.919491653446196 40 19.00399174943121
  endloop
endfacet
facet normal 0 1 0
  outer loop
    vertex 9.432416287036812 40 23.55369050657344
    vertex 8.370573476016023 40 15.54468256217518
    vertex 3.919491653446196 40 19.00399174943121
  endloop
endfacet
facet normal 0 1 0
  outer loop
    vertex 1.807720434579259 40 11.73313043375337
    vertex 7.267350905393291 40 7.937966082290211
    vertex 2.588882528525897 40 5.048857657418571
  endloop
endfacet
facet normal 0 1 0
  outer loop
    vertex -1.521180714174524 40 18.38873544629972
    vertex 1.807720434579259 40 11.73313043375337
    vertex -3.876345983247481 40 11.01466664112717
  endloop
endfacet
facet normal 0 1 -0
  outer loop
    vertex 1.807720434579259 40 11.73313043375337
    vertex -1.521180714174524 40 18.38873544629972
    vertex 3.919491653446196 40 19.00399174943121
  endloop
endfacet
facet normal -0 1 0
  outer loop
    vertex -14.31809614456354 40 11.10195254765528
    vertex -8.349911901576737 40 14.46410919238995
    vertex -9.42386671830706 40 6.449639231698081
  endloop
endfacet
facet normal 0 1 0
  outer loop
    vertex -14.31809614456354 40 11.10195254765528
    vertex -9.42386671830706 40 6.449639231698081
    vertex -15.23993133188813 40 5.018209186469814
  endloop
endfacet
facet normal 0 1 0
  outer loop
    vertex -8.349911901576737 40 14.46410919238995
    vertex -7.249759126594647 40 22.09103205413011
    vertex -1.521180714174524 40 18.38873544629972
  endloop
endfacet
facet normal -0 1 0
  outer loop
    vertex -8.349911901576737 40 14.46410919238995
    vertex -1.521180714174524 40 18.38873544629972
    vertex -3.876345983247481 40 11.01466664112717
  endloop
endfacet
facet normal 0 1 0
  outer loop
    vertex -9.42386671830706 40 6.449639231698081
    vertex -8.349911901576737 40 14.46410919238995
    vertex -3.876345983247481 40 11.01466664112717
  endloop
endfacet
facet normal 0 1 0
  outer loop
    vertex -1.521180714174524 40 18.38873544629972
    vertex -7.249759126594647 40 22.09103205413011
    vertex -2.458604922038695 40 24.93761427377354
  endloop
endfacet
endsolid Created by Gmsh
